<?xml version="1.0" standalone="no"?>
<!DOCTYPE svg PUBLIC "-//W3C//DTD SVG 20010904//EN"
 "http://www.w3.org/TR/2001/REC-SVG-20010904/DTD/svg10.dtd">
<svg version="1.0" xmlns="http://www.w3.org/2000/svg"
 width="1024.000000pt" height="1024.000000pt" viewBox="0 0 1024.000000 1024.000000"
 preserveAspectRatio="xMidYMid meet">
<metadata>
Created by potrace 1.14, written by Peter Selinger 2001-2017
</metadata>
<g transform="translate(0.000000,1024.000000) scale(0.100000,-0.100000)"
fill="#000000" stroke="none">
<path d="M0 5120 l0 -5120 144 0 c106 0 145 3 148 12 3 9 30 12 93 11 48 -1
100 3 114 9 14 6 78 17 141 24 63 7 162 20 220 28 58 9 166 21 240 27 74 5
171 12 215 16 103 7 448 6 545 -2 41 -3 94 -8 118 -10 94 -7 169 -17 207 -27
22 -6 49 -11 60 -10 11 1 55 -8 99 -18 43 -11 91 -20 106 -20 19 0 29 -6 33
-20 5 -20 14 -20 3881 -20 l3876 0 0 5120 0 5120 -5120 0 -5120 0 0 -5120z
m7685 4154 c228 -36 479 -137 652 -260 492 -354 727 -977 593 -1574 -29 -129
-63 -220 -146 -387 l-75 -152 90 -180 c144 -287 210 -457 270 -701 22 -85 44
-191 50 -235 7 -44 16 -108 22 -141 11 -73 12 -204 2 -204 -5 0 -8 38 -7 85 1
47 -1 85 -3 85 -2 0 -7 -10 -12 -22 -6 -17 -10 -7 -15 42 -21 199 -115 534
-223 800 -43 104 -169 358 -188 376 -7 8 -15 19 -18 26 -5 15 -3 17 -51 -47
-55 -75 -208 -227 -289 -289 -141 -107 -381 -233 -481 -252 -27 -4 -44 -16
-58 -38 -75 -114 -392 -256 -576 -256 -34 0 -43 -3 -32 -10 8 -5 85 -10 171
-10 153 0 179 -5 179 -35 0 -41 -279 -100 -439 -93 -71 2 -86 0 -86 -12 0 -10
22 -22 59 -34 92 -29 140 -58 144 -85 l4 -24 -124 7 c-67 4 -134 10 -147 13
-19 5 -23 3 -18 -10 3 -9 0 -18 -9 -21 -8 -3 -14 -11 -14 -17 0 -7 3 -10 6 -6
3 3 13 -1 22 -9 10 -7 26 -20 37 -28 20 -15 20 -15 -1 -37 -14 -13 -39 -23
-68 -26 -32 -4 -46 -10 -46 -21 0 -8 -9 -30 -21 -48 -11 -19 -16 -34 -10 -34
6 0 11 6 11 14 0 24 18 28 47 12 l28 -15 -37 -15 c-21 -9 -44 -16 -52 -16 -8
0 -19 -6 -23 -14 -4 -7 -19 -18 -33 -25 -24 -11 -24 -11 -6 3 12 10 15 16 7
16 -14 0 -120 46 -291 128 -104 50 -105 50 -126 31 -25 -24 -38 -25 -25 -2 5
10 5 26 0 40 -10 26 12 43 56 43 24 0 27 -3 23 -29 -3 -21 1 -32 15 -41 34
-21 340 -160 353 -160 6 0 49 82 94 183 345 760 335 736 323 748 -4 4 -114 58
-243 120 -323 153 -378 178 -433 200 -55 22 -103 20 -99 -3 1 -8 -10 -42 -24
-74 -15 -32 -53 -122 -84 -199 -32 -77 -101 -240 -154 -362 -53 -122 -96 -226
-96 -232 0 -5 -5 -13 -11 -17 -8 -4 -9 1 -5 17 6 20 5 21 -4 7 -8 -13 -8 -23
0 -38 6 -11 7 -20 1 -20 -14 0 -81 70 -81 86 0 15 77 212 89 229 4 6 29 62 56
125 26 63 72 171 102 240 71 162 74 169 122 273 l41 89 -59 77 c-270 355 -379
694 -351 1092 14 194 57 352 146 534 67 139 236 375 267 375 9 0 9 -2 -1 -8
-13 -9 158 -66 191 -64 9 0 17 -3 17 -8 0 -13 89 -40 107 -33 11 4 14 3 9 -5
-4 -7 -1 -12 8 -12 9 0 16 4 16 10 0 10 20 9 50 -3 30 -11 63 -16 54 -8 -12
11 -157 66 -279 107 -55 18 -113 37 -129 44 -33 12 -40 4 74 100 35 30 76 65
90 78 110 101 318 191 548 237 181 36 371 39 557 9z m-2320 -234 c61 -5 153
-15 205 -22 85 -11 91 -13 55 -19 l-40 -6 42 -2 c23 0 45 -6 49 -12 4 -8 -3
-9 -22 -6 -164 32 -775 33 -1014 3 -777 -100 -1408 -370 -2073 -889 -44 -35
-43 -359 3 -570 50 -229 180 -530 335 -772 28 -44 64 -102 79 -130 35 -61 272
-377 375 -500 123 -146 398 -420 510 -508 215 -168 222 -181 232 -422 5 -99
12 -196 17 -215 30 -112 111 -244 225 -365 62 -65 78 -77 86 -65 7 9 8 124 5
315 -6 423 -6 422 -49 512 -49 101 -101 149 -234 217 -106 54 -110 58 -127
103 -14 36 -42 71 -111 137 -81 77 -170 189 -188 238 -5 12 5 17 44 22 l51 7
-1 47 -1 47 -10 -40 c-6 -22 -11 -41 -12 -42 0 0 -23 -4 -51 -8 -39 -6 -47 -5
-39 5 9 9 9 24 -1 59 -13 51 -12 54 43 86 17 11 34 26 36 35 18 66 17 71 -14
100 -16 15 -30 31 -30 35 0 3 -8 14 -17 23 -16 16 -16 16 -11 -5 4 -16 2 -23
-8 -23 -31 0 -12 -18 26 -24 24 -4 43 -14 50 -25 13 -25 6 -29 -57 -36 -57 -6
-148 -36 -166 -54 -17 -17 48 -3 95 20 39 20 108 26 108 10 0 -15 -64 -61 -84
-61 -9 0 -29 -12 -44 -27 -15 -15 -31 -28 -37 -28 -5 0 -10 -7 -10 -15 0 -9 8
-14 21 -13 31 3 60 -31 48 -57 -9 -20 -9 -20 -32 2 -58 58 -95 106 -112 145
-11 24 -28 55 -39 70 -14 19 -21 47 -23 87 -3 61 3 70 56 89 10 3 -6 58 -39
132 -12 28 -42 102 -65 165 -24 63 -58 151 -75 195 -18 44 -53 130 -78 190
-39 96 -45 123 -51 212 -7 97 -7 101 13 108 12 3 21 11 21 16 0 22 21 4 75
-61 31 -39 67 -94 79 -123 18 -41 225 -600 292 -787 10 -29 19 -36 50 -43 69
-14 144 -109 144 -183 0 -27 8 -51 22 -70 37 -50 192 -204 205 -204 21 0 124
-53 188 -97 33 -22 71 -44 85 -48 14 -4 52 -22 85 -38 49 -25 77 -32 164 -39
73 -5 108 -12 113 -22 20 -36 82 -101 97 -101 9 0 15 -5 14 -12 -2 -9 109 -53
134 -53 4 0 -19 15 -52 34 -33 18 -60 37 -60 42 0 5 -4 15 -9 22 -19 31 12 36
86 14 40 -12 97 -22 126 -22 49 0 52 -1 52 -26 0 -37 -36 -63 -90 -65 l-45 -2
39 -4 c54 -6 93 13 120 59 16 27 26 35 30 26 3 -7 4 -3 2 10 -4 20 0 22 32 22
47 -1 150 -45 227 -97 113 -76 142 -87 233 -87 75 -1 85 -3 101 -24 16 -22 20
-23 62 -12 24 6 89 26 144 45 133 45 199 55 257 38 25 -7 51 -19 57 -27 15
-18 4 -66 -15 -66 -8 0 -14 -4 -14 -10 0 -5 -8 -10 -18 -10 -10 0 -27 -7 -38
-15 -18 -15 -17 -15 21 -14 22 2 50 -1 62 -5 22 -7 95 12 131 35 14 9 26 7 58
-10 21 -12 32 -20 23 -18 -8 3 -20 -3 -26 -12 -26 -42 -160 -51 -259 -19 -39
13 -39 13 -104 -36 -65 -49 -162 -99 -216 -112 -16 -3 9 13 56 37 46 23 79 44
72 47 -6 2 -27 -6 -46 -17 -19 -12 -38 -21 -43 -19 -4 1 -24 -2 -43 -7 -51
-12 -94 -13 -101 -3 -3 5 -16 -10 -29 -34 -12 -24 -27 -46 -34 -50 -15 -11
-84 -10 -90 1 -3 4 6 6 19 3 34 -6 75 6 75 21 0 8 -14 13 -36 14 -20 1 -40 7
-44 13 -5 9 -13 9 -25 3 -11 -7 -37 -5 -78 4 -78 18 -97 29 -97 54 0 26 -18
59 -32 59 -10 0 -9 -13 7 -145 2 -16 9 -102 15 -190 15 -210 29 -265 69 -265
9 0 25 -9 34 -21 18 -20 18 -21 0 -15 -10 3 -31 8 -48 12 -27 7 -29 6 -16 -9
7 -10 20 -17 29 -17 8 0 13 -3 9 -6 -5 -5 -84 15 -125 33 -31 12 24 -52 67
-79 l45 -28 -32 0 c-18 0 -32 -5 -32 -11 0 -7 -12 -10 -29 -7 -17 2 -28 1 -25
-4 3 -4 20 -8 39 -8 19 0 37 -5 41 -12 5 -8 -7 -10 -44 -5 -34 4 -52 2 -52 -4
0 -6 -16 -2 -35 10 -19 11 -35 17 -35 13 0 -21 71 -73 123 -90 l59 -19 -33
-12 c-17 -6 -43 -11 -55 -11 -31 0 -32 -20 -1 -21 12 0 -4 -7 -36 -16 -66 -17
-138 -11 -162 14 -30 30 -26 5 5 -30 21 -24 27 -37 18 -40 -10 -4 -10 -8 2
-17 12 -9 9 -11 -15 -7 -16 3 -39 8 -50 12 -11 3 2 -6 28 -20 27 -15 46 -29
43 -32 -8 -8 -92 25 -106 43 -7 7 -17 14 -22 14 -6 0 -4 -7 3 -17 13 -15 11
-16 -16 -10 -16 4 -75 10 -130 13 -109 7 -222 -9 -330 -46 -32 -11 -73 -20
-90 -20 -45 0 -55 -16 -45 -70 14 -69 12 -80 -11 -80 -11 0 -29 5 -40 11 -19
10 -19 9 -9 -10 9 -17 7 -27 -11 -51 -28 -37 -21 -47 14 -19 25 19 27 19 28 2
0 -16 1 -16 9 2 8 18 9 18 9 2 1 -10 -4 -28 -10 -39 -8 -15 -8 -23 2 -32 9 -8
11 -7 6 7 -4 10 -1 17 7 17 7 0 18 10 25 23 6 12 9 14 7 5 -3 -10 1 -30 9 -45
8 -15 15 -34 15 -41 0 -16 -30 -64 -47 -75 -7 -4 -13 -13 -13 -20 0 -7 13 2
28 18 18 19 37 30 55 30 15 0 27 -1 27 -2 0 -15 -49 -53 -69 -54 -23 -2 -24
-2 -4 -6 12 -2 30 0 40 5 13 8 27 2 60 -26 24 -20 43 -42 43 -50 0 -7 5 -10
10 -7 6 3 10 -1 10 -9 0 -9 5 -15 12 -13 7 1 16 -14 21 -33 8 -29 1 -64 -38
-200 -40 -141 -54 -176 -96 -238 -53 -80 -58 -99 -31 -128 13 -15 33 -19 95
-21 61 -2 87 -7 115 -25 59 -36 64 -44 57 -88 l-7 -40 -19 24 c-26 33 -93 58
-135 50 -19 -3 -37 -10 -40 -15 -10 -17 -25 -9 -45 26 l-21 35 -44 -62 c-49
-70 -53 -92 -25 -147 13 -24 16 -42 11 -51 -5 -8 -5 -19 -1 -25 14 -18 31 -76
20 -69 -5 3 -1 -11 10 -32 26 -47 26 -63 4 -71 -10 -4 -23 -13 -28 -20 -9 -12
-21 -9 -70 13 -33 14 -62 29 -65 33 -3 4 -21 17 -40 29 -19 11 -64 51 -99 88
-36 37 -66 63 -68 57 -2 -5 3 -37 11 -71 20 -86 5 -145 -82 -322 -20 -41 -56
-50 -107 -26 -18 9 -37 16 -42 16 -9 0 -117 79 -137 99 -63 67 -116 131 -116
142 0 5 -4 9 -10 9 -5 0 -22 18 -36 40 -15 22 -30 37 -34 35 -5 -3 -6 5 -3 17
4 19 3 20 -6 8 -9 -13 -11 -13 -11 3 0 9 -4 17 -9 17 -5 0 -12 11 -15 24 -3
13 -17 34 -31 47 -13 13 -25 34 -25 45 0 12 -7 27 -15 34 -8 7 -15 21 -15 32
0 11 -5 29 -12 41 -6 12 -15 36 -19 52 -7 29 -7 29 -9 -10 l-2 -40 -10 30
c-15 43 -14 289 1 355 7 30 37 105 66 166 45 94 65 122 122 177 77 75 92 87
191 155 l71 49 -37 1 c-45 2 -82 34 -66 59 6 9 30 23 53 31 52 17 50 24 -4 12
-58 -14 -138 -12 -159 3 -24 17 -17 48 14 65 23 12 21 12 -21 7 -89 -13 -162
47 -91 74 22 9 20 10 -18 3 -77 -12 -215 -9 -233 7 -10 7 -17 17 -17 22 0 11
63 41 151 71 l67 23 -142 0 c-158 0 -209 12 -204 49 2 17 14 23 63 32 l60 11
-117 2 c-137 1 -169 10 -166 45 1 14 6 22 10 20 5 -3 32 3 61 14 49 18 79 25
221 55 57 12 55 12 -85 13 -115 1 -160 6 -224 23 -87 24 -125 44 -125 66 0 17
12 21 140 36 l105 13 -72 12 c-315 54 -497 186 -238 171 l90 -5 -85 23 c-166
44 -312 115 -318 153 -5 31 16 36 105 23 43 -6 96 -13 118 -16 28 -4 11 5 -55
30 -178 66 -291 128 -358 196 -60 62 -40 78 60 48 87 -26 271 -69 275 -65 2 2
-25 14 -59 26 -218 80 -428 215 -428 276 0 21 26 17 169 -25 72 -21 131 -37
131 -35 0 2 -42 25 -92 50 -115 58 -219 128 -280 191 -48 50 -98 119 -98 136
0 21 82 -3 257 -77 101 -42 186 -76 190 -76 5 0 -30 24 -77 53 -135 82 -209
139 -298 229 -134 136 -216 260 -248 381 -16 63 -3 62 64 -7 85 -89 332 -290
332 -270 0 3 -31 37 -69 77 -163 170 -273 320 -352 483 -89 185 -109 363 -25
226 51 -82 177 -234 276 -332 96 -95 235 -218 214 -190 -6 8 -42 56 -80 105
-149 193 -288 437 -344 600 -9 28 -22 50 -28 50 -28 0 -202 -275 -310 -492
-193 -385 -307 -783 -357 -1243 -9 -80 -19 -176 -24 -215 l-8 -70 -3 65 -3 65
-7 -65 -7 -65 -1 90 c-2 105 18 289 54 500 86 496 274 956 567 1387 l79 117
-23 138 c-38 222 -32 508 11 573 17 25 25 -2 39 -118 15 -138 47 -305 72 -388
l20 -64 50 62 c28 35 47 68 44 77 -2 9 -9 68 -16 131 -22 225 17 488 96 641
16 30 19 32 25 14 4 -11 8 -49 9 -85 4 -176 31 -468 46 -517 2 -7 63 47 136
120 126 126 134 136 173 227 45 102 132 239 168 264 28 20 34 7 14 -32 -20
-38 -68 -203 -61 -210 2 -3 17 7 32 23 57 56 343 260 453 322 19 11 77 43 128
72 485 274 1045 444 1627 494 89 8 457 6 560 -3z m552 -106 c-3 -3 -12 -4 -19
-1 -8 3 -5 6 6 6 11 1 17 -2 13 -5z m223 -24 c47 -12 92 -23 100 -25 29 -6 85
-33 70 -35 -10 0 -6 -6 10 -16 29 -17 42 -20 -170 36 -169 44 -232 62 -190 56
14 -3 48 -7 75 -10 44 -5 46 -5 18 4 -18 6 -33 13 -33 16 0 3 8 3 18 0 9 -3
55 -15 102 -26z m513 -167 c-7 -2 -19 -2 -25 0 -7 3 -2 5 12 5 14 0 19 -2 13
-5z m-1519 -1488 c205 -31 291 -71 371 -173 61 -77 98 -150 135 -262 54 -165
48 -302 -18 -444 -37 -79 -87 -157 -96 -149 -3 3 -6 -7 -7 -23 -1 -61 -31
-167 -65 -235 -33 -66 -90 -112 -219 -176 -99 -49 -113 -59 -102 -72 10 -14
10 -14 -3 -5 -8 6 -37 14 -65 16 -61 6 -197 69 -232 109 -14 16 -35 31 -45 35
-16 5 -17 8 -6 21 11 14 10 15 -11 8 -16 -5 -21 -4 -17 4 5 7 1 9 -11 4 -10
-3 -15 -2 -10 2 4 5 -5 22 -20 39 -16 17 -20 24 -10 17 12 -9 17 -10 17 -2 0
6 -7 14 -15 18 -9 3 -27 27 -41 54 -13 27 -28 49 -33 49 -5 0 -12 10 -15 23
-2 12 -4 3 -3 -20 1 -23 -1 -39 -5 -37 -5 3 -8 12 -8 21 0 9 -3 13 -7 9 -7 -7
19 -65 48 -103 9 -12 20 -19 24 -15 3 4 5 0 3 -8 -2 -8 3 -14 10 -12 8 1 11
-2 7 -7 -3 -6 19 -29 50 -52 31 -23 54 -44 51 -46 -6 -7 -115 75 -150 112 -31
33 -76 120 -76 147 0 10 -10 20 -24 24 -34 8 -42 33 -11 31 13 -1 24 2 24 7
-1 5 5 12 11 16 10 6 10 16 1 41 -10 31 -9 32 4 15 14 -18 15 -17 15 25 0 59
9 89 25 83 18 -7 49 124 43 185 -4 39 -1 50 14 60 10 6 18 21 18 32 0 32 40
91 57 85 8 -3 12 -2 9 3 -6 10 18 23 46 26 10 1 24 8 33 15 8 7 15 10 15 6 0
-3 -18 -18 -40 -32 -22 -15 -40 -30 -40 -34 0 -9 68 13 111 35 43 23 58 18 21
-6 -42 -27 -36 -34 12 -14 20 8 66 22 102 29 59 12 65 12 59 -2 -3 -8 -1 -19
6 -22 8 -5 6 -16 -5 -39 l-17 -31 33 0 c30 -1 31 -2 16 -14 -25 -19 -22 -26
10 -26 46 0 128 48 173 101 46 55 59 60 59 24 0 -14 2 -25 5 -25 20 0 65 33
71 52 7 22 7 22 14 3 4 -11 3 -33 -1 -48 -6 -20 -4 -30 6 -33 27 -11 48 2 61
36 l12 35 1 -38 c1 -21 -6 -54 -14 -73 -15 -36 -15 -36 9 -30 36 9 49 -39 36
-132 -5 -39 -7 -79 -4 -89 5 -15 4 -16 -5 -3 -9 12 -11 11 -11 -10 0 -14 -3
-36 -5 -50 -3 -14 -3 -19 1 -12 10 20 22 13 18 -10 -2 -13 -1 -16 2 -8 4 8 12
18 18 22 8 6 8 8 -1 8 -8 0 -8 14 2 53 45 181 13 421 -67 505 -18 18 -62 48
-98 65 -58 29 -73 32 -150 31 -54 0 -114 -9 -165 -23 -83 -23 -247 -98 -281
-129 -10 -9 -38 -31 -61 -48 -47 -34 -160 -156 -205 -222 -16 -23 -39 -64 -50
-90 -12 -26 -28 -52 -37 -59 -14 -10 -12 -11 8 -6 22 6 23 4 17 -23 -4 -16 -8
-39 -9 -52 -2 -23 -3 -23 -29 8 -31 34 -39 17 -12 -24 11 -18 12 -26 3 -32 -7
-4 -9 -3 -6 2 3 6 1 16 -4 24 -6 10 -8 4 -4 -20 3 -19 10 -36 16 -38 5 -2 9
-9 9 -16 0 -22 58 -94 87 -108 33 -16 37 -42 6 -46 -55 -8 -143 121 -143 212
0 28 -5 69 -10 91 -75 309 -23 537 168 732 63 64 112 92 217 123 150 43 224
48 379 25z m-56 -490 c-2 -3 -19 -7 -37 -9 -37 -4 -29 10 9 16 26 4 37 1 28
-7z m1417 -145 c3 -5 2 -10 -4 -10 -5 0 -13 5 -16 10 -3 6 -2 10 4 10 5 0 13
-4 16 -10z m55 -29 c0 -11 -31 -24 -39 -16 -3 3 1 10 9 15 19 12 30 12 30 1z
m50 -32 c0 -14 -16 -11 -29 5 -10 12 -8 13 8 9 12 -3 21 -9 21 -14z m87 -44
c0 -8 -9 -15 -21 -15 -20 0 -20 0 0 15 10 8 19 15 20 15 0 0 1 -7 1 -15z
m-190 -38 c2 -24 0 -25 -18 -14 -22 14 -26 29 -4 21 17 -7 21 11 5 19 -6 3 -5
4 2 3 7 -1 14 -14 15 -29z m83 23 c0 -5 -2 -10 -4 -10 -3 0 -8 5 -11 10 -3 6
-1 10 4 10 6 0 11 -4 11 -10z m-17 -47 c22 2 63 -45 53 -62 -4 -6 -17 -11 -29
-10 -21 0 -21 1 2 10 29 11 21 24 -8 14 -12 -3 -21 -13 -21 -22 0 -9 -6 -13
-15 -10 -8 4 -16 3 -19 -1 -6 -11 -99 -7 -120 5 -18 10 -15 33 5 33 6 0 7 -4
4 -10 -3 -6 5 -10 19 -10 16 0 27 7 31 20 8 26 21 25 36 -2 10 -18 9 -20 -5
-15 -9 4 -16 2 -16 -3 0 -14 14 -12 55 7 41 20 44 30 11 43 -17 6 -23 16 -23
37 l0 28 11 -27 c6 -18 16 -26 29 -25z m65 28 c3 -8 -1 -12 -9 -9 -7 2 -15 10
-17 17 -3 8 1 12 9 9 7 -2 15 -10 17 -17z m97 -1 c3 -5 -1 -10 -10 -10 -9 0
-13 5 -10 10 3 6 8 10 10 10 2 0 7 -4 10 -10z m48 -5 c-3 -9 -8 -14 -10 -11
-3 3 -2 9 2 15 9 16 15 13 8 -4z m-99 -21 c3 -9 6 -28 5 -42 -1 -26 -1 -26 -8
4 -4 17 -11 36 -15 42 -4 7 -3 12 2 12 6 0 13 -7 16 -16z m43 0 c-3 -3 -12 -4
-19 -1 -8 3 -5 6 6 6 11 1 17 -2 13 -5z m-264 -11 c-7 -2 -19 -2 -25 0 -7 3
-2 5 12 5 14 0 19 -2 13 -5z m406 -59 c14 -12 -19 -1 -35 12 -18 14 -18 14 6
3 14 -6 27 -13 29 -15z m101 -9 c0 -8 -2 -15 -4 -15 -2 0 -6 7 -10 15 -3 8 -1
15 4 15 6 0 10 -7 10 -15z m-138 -7 c9 -7 23 -48 33 -91 9 -43 36 -124 60
-181 56 -135 62 -236 15 -251 -10 -3 -21 -16 -24 -28 -6 -27 -41 -45 -189 -98
-59 -21 -117 -44 -129 -50 -11 -6 -41 -15 -67 -19 l-46 -8 40 -2 40 -2 -55
-14 c-39 -9 -58 -10 -67 -2 -16 13 -18 52 -2 42 7 -4 10 -1 7 7 -3 8 -10 13
-15 12 -18 -3 -76 149 -76 199 1 40 -2 47 -22 52 -12 3 -30 18 -40 33 l-18 28
30 -27 c36 -34 43 -35 43 -4 0 14 7 32 16 40 19 20 24 20 24 0 0 -8 -4 -13 -8
-10 -13 8 -7 -177 7 -209 7 -16 15 -25 18 -18 2 7 0 21 -6 32 -6 11 -11 32
-10 48 0 22 3 18 13 -19 7 -26 19 -55 26 -65 37 -48 66 -73 84 -73 26 0 208
61 264 88 23 11 43 17 46 14 12 -11 -266 -112 -310 -112 -19 0 -39 13 -66 42
-21 23 -38 35 -38 28 0 -19 78 -90 99 -90 26 0 256 85 331 123 36 17 65 39 65
47 0 8 -16 24 -36 35 -20 11 -34 25 -32 32 2 7 13 2 28 -13 34 -34 53 -31 61
12 9 48 2 84 -41 199 -71 194 -86 215 -141 195 -27 -9 -28 -9 -10 5 27 20 59
19 80 -4 18 -20 126 -299 126 -326 0 -8 5 -15 10 -15 14 0 15 -2 -40 148 -68
183 -75 198 -103 217 -27 17 -60 10 -103 -24 -23 -18 -154 -65 -250 -90 -23
-6 -54 -21 -69 -33 -23 -18 -26 -26 -22 -57 6 -33 5 -35 -8 -17 -8 11 -15 23
-15 28 0 16 -19 8 -30 -13 -9 -16 -8 -20 2 -17 8 2 26 -9 41 -24 30 -30 26
-39 -5 -11 -19 17 -26 5 -7 -14 8 -8 8 -13 0 -17 -6 -4 -11 -16 -11 -27 0 -10
-5 -19 -11 -19 -7 0 -8 7 -4 18 17 41 18 52 2 46 -9 -3 -13 -12 -10 -20 3 -8
0 -14 -6 -14 -6 0 -11 9 -11 20 0 12 7 20 18 20 14 0 14 2 3 9 -11 7 -10 10 5
14 17 4 17 5 -2 6 -24 1 -47 -39 -38 -66 5 -17 5 -17 -6 -1 -8 14 -7 26 3 50
8 18 17 41 21 51 3 9 14 20 23 24 10 4 34 19 53 35 19 15 63 37 97 49 40 13
67 29 75 42 9 18 12 19 17 6 5 -15 11 -15 60 1 29 10 61 25 70 34 13 14 14 16
1 11 -11 -4 -16 1 -17 15 -2 18 0 19 13 5 21 -20 25 -19 64 15 36 33 57 37 82
18z m207 -1 c-2 -2 -12 -9 -21 -16 -15 -11 -18 -11 -18 1 0 7 10 14 21 15 12
1 20 1 18 0z m-109 -12 c0 -7 -30 -13 -34 -7 -3 4 4 9 15 9 10 1 19 0 19 -2z
m158 -49 c-12 -7 -25 -11 -27 -9 -8 6 34 31 42 26 5 -3 -2 -11 -15 -17z m-713
-6 c3 -5 1 -10 -4 -10 -6 0 -11 5 -11 10 0 6 2 10 4 10 3 0 8 -4 11 -10z m645
-22 c0 -6 -7 -5 -15 2 -8 7 -15 17 -15 22 0 6 7 5 15 -2 8 -7 15 -17 15 -22z
m-62 15 c-10 -2 -18 -9 -18 -15 0 -6 -3 -9 -6 -5 -10 10 6 27 24 26 15 -1 15
-2 0 -6z m-588 -17 c0 -2 -7 -7 -16 -10 -8 -3 -12 -2 -9 4 6 10 25 14 25 6z
m317 -22 c-15 -8 -57 -24 -94 -35 -38 -12 -85 -36 -109 -55 -42 -35 -58 -42
-52 -23 2 6 7 10 12 9 4 -1 21 11 37 27 19 17 65 40 122 59 105 35 123 39 84
18z m-250 -16 c-2 -7 -22 -22 -43 -33 -22 -11 -47 -29 -57 -40 -11 -13 -16
-15 -15 -6 4 18 31 49 40 44 3 -2 21 10 39 27 33 29 46 32 36 8z m537 -26 c-5
-15 -4 -15 9 1 13 16 15 16 21 2 3 -9 2 -13 -3 -10 -5 3 -13 0 -17 -6 -3 -6
-1 -15 6 -19 9 -5 9 -9 1 -14 -12 -8 -43 53 -34 67 8 14 22 -3 17 -21z m113
-69 c-20 -20 -39 -7 -31 22 3 12 1 26 -5 29 -6 4 -11 13 -11 19 0 7 14 -3 31
-22 27 -30 29 -35 16 -48z m63 61 c0 -2 -7 -4 -15 -4 -8 0 -15 4 -15 10 0 5 7
7 15 4 8 -4 15 -8 15 -10z m-495 -14 c3 -5 1 -10 -4 -10 -6 0 -11 5 -11 10 0
6 2 10 4 10 3 0 8 -4 11 -10z m-188 -6 c-4 -4 -17 -12 -29 -19 -16 -8 -22 -19
-21 -38 2 -25 1 -26 -14 -11 -20 19 -9 42 28 61 26 14 46 17 36 7z m563 -41
c0 -32 -17 -37 -23 -6 -7 35 2 60 14 41 5 -7 9 -23 9 -35z m-467 7 c-2 -3 -18
-5 -35 -6 -18 -1 -25 1 -18 6 13 8 62 8 53 0z m62 0 c3 -5 15 -10 26 -10 10 0
19 -5 19 -10 0 -6 -16 -4 -37 5 -44 19 -52 25 -30 25 9 0 19 -4 22 -10z m95 0
c0 -5 -9 -10 -21 -10 -11 0 -17 5 -14 10 3 6 13 10 21 10 8 0 14 -4 14 -10z
m56 -36 c7 10 15 13 18 8 3 -5 -1 -15 -9 -22 -12 -10 -21 -10 -41 -1 -14 6
-22 16 -19 21 4 6 13 4 22 -6 15 -15 18 -15 29 0z m-158 -19 c-3 -3 -9 2 -12
12 -6 14 -5 15 5 6 7 -7 10 -15 7 -18z m-153 5 c8 -13 -5 -13 -25 0 -13 8 -13
10 2 10 9 0 20 -4 23 -10z m60 -28 c-6 -7 -35 18 -35 31 0 5 9 2 20 -8 11 -10
18 -20 15 -23z m182 32 c-3 -3 -12 -4 -19 -1 -8 3 -5 6 6 6 11 1 17 -2 13 -5z
m-37 -16 c0 -4 -4 -8 -9 -8 -6 0 -12 4 -15 8 -3 5 1 9 9 9 8 0 15 -4 15 -9z
m58 -23 c2 -30 -1 -31 -24 -8 -15 16 -15 17 2 24 11 4 19 8 19 8 0 1 2 -10 3
-24z m-308 6 c0 -6 -4 -13 -10 -16 -5 -3 -10 1 -10 9 0 9 5 16 10 16 6 0 10
-4 10 -9z m390 -1 c-12 -8 -12 -11 3 -28 9 -10 17 -22 17 -27 0 -4 -9 4 -20
18 -25 31 -25 47 -2 47 14 0 15 -2 2 -10z m-315 -21 c-7 -10 -35 -1 -35 11 0
5 9 6 20 3 11 -3 17 -9 15 -14z m70 11 c3 -5 1 -10 -4 -10 -6 0 -11 5 -11 10
0 6 2 10 4 10 3 0 8 -4 11 -10z m80 1 c-3 -6 3 -14 12 -20 10 -5 15 -13 11
-16 -4 -4 -19 2 -33 13 -23 18 -23 21 -8 25 10 3 19 5 21 6 2 0 1 -3 -3 -8z
m135 -6 c0 -2 -6 -5 -13 -8 -8 -3 -14 1 -14 8 0 7 6 11 14 8 7 -3 13 -6 13 -8z
m-314 -30 c21 -11 24 -15 11 -15 -10 0 -25 7 -33 15 -19 19 -14 19 22 0z m91
9 c-3 -3 -12 -4 -19 -1 -8 3 -5 6 6 6 11 1 17 -2 13 -5z m180 -42 l13 -27 -19
23 c-11 12 -24 22 -30 22 -6 0 -11 4 -11 9 0 19 36 -1 47 -27z m37 22 c10 -25
-1 -29 -14 -5 -6 12 -7 21 -1 21 5 0 12 -7 15 -16z m103 10 c-3 -3 -12 -4 -19
-1 -8 3 -5 6 6 6 11 1 17 -2 13 -5z m-410 -31 c5 3 15 2 23 -4 11 -6 8 -9 -13
-9 -35 0 -70 18 -61 31 4 6 13 4 24 -6 10 -9 23 -15 27 -12z m96 8 c3 -13 1
-18 -9 -14 -7 2 -10 11 -7 19 7 19 10 18 16 -5z m265 -26 c-3 -3 -9 2 -12 12
-6 14 -5 15 5 6 7 -7 10 -15 7 -18z m-168 -1 c7 -7 1 -9 -20 -6 -16 2 -30 8
-30 11 0 11 39 6 50 -5z m211 -12 c-4 -10 -11 -24 -13 -32 -3 -8 -5 1 -5 21 1
26 5 35 14 32 8 -3 10 -11 4 -21z m-151 -1 c0 -10 -7 -21 -15 -25 -9 -3 -15 0
-15 10 0 8 5 12 10 9 6 -3 10 1 10 9 0 9 2 16 5 16 3 0 5 -9 5 -19z m54 -7 c3
-8 2 -12 -4 -9 -6 3 -10 10 -10 16 0 14 7 11 14 -7z m-165 -3 c10 -6 -1 -9
-32 -9 -26 0 -47 4 -47 9 0 12 61 11 79 0z m226 -1 c3 -5 2 -10 -4 -10 -5 0
-13 5 -16 10 -3 6 -2 10 4 10 5 0 13 -4 16 -10z m-325 -15 c7 -8 19 -15 26
-15 8 0 14 -5 14 -10 0 -7 -6 -7 -19 0 -11 5 -36 11 -55 12 -32 3 -34 5 -19
16 22 16 38 15 53 -3z m173 -17 c23 -11 53 -24 67 -28 13 -3 20 -9 15 -12 -6
-3 -39 9 -75 28 -36 18 -61 33 -57 34 4 0 27 -10 50 -22z m82 12 c3 -5 17 -10
31 -10 13 0 24 -4 24 -9 0 -11 -47 1 -77 18 -16 9 -16 10 -1 11 9 0 20 -4 23
-10z m-510 -30 c-16 -16 -30 -28 -32 -26 -6 5 41 56 51 56 6 0 -3 -13 -19 -30z
m332 14 c-3 -3 -12 -4 -19 -1 -8 3 -5 6 6 6 11 1 17 -2 13 -5z m-137 -34 c0
-5 -2 -10 -4 -10 -3 0 -8 5 -11 10 -3 6 -1 10 4 10 6 0 11 -4 11 -10z m47 -8
c-10 -10 -14 -22 -10 -27 5 -4 0 -5 -9 -2 -12 4 -18 1 -18 -7 0 -8 14 -19 32
-25 17 -6 28 -14 24 -18 -4 -4 -22 1 -40 11 -25 13 -32 23 -29 37 3 10 10 19
15 19 5 0 16 7 24 15 22 21 30 19 11 -3z m73 14 c0 -2 -7 -7 -16 -10 -8 -3
-12 -2 -9 4 6 10 25 14 25 6z m107 -2 c-3 -3 -12 -4 -19 -1 -8 3 -5 6 6 6 11
1 17 -2 13 -5z m156 -34 c-3 -12 -8 -19 -11 -16 -5 6 5 36 12 36 2 0 2 -9 -1
-20z m-120 3 c-7 -2 -21 -2 -30 0 -10 3 -4 5 12 5 17 0 24 -2 18 -5z m-427
-15 c10 -15 6 -70 -5 -81 -4 -4 -7 2 -7 15 1 13 -8 26 -20 33 -12 6 -29 17
-38 24 -9 7 -25 11 -36 8 -11 -3 -18 -1 -14 4 8 14 112 11 120 -3z m484 -2 c0
-3 -4 -8 -10 -11 -5 -3 -10 -1 -10 4 0 6 5 11 10 11 6 0 10 -2 10 -4z m120 -6
c0 -9 -42 -32 -48 -26 -3 3 0 6 7 6 7 0 11 6 8 13 -3 8 3 13 14 13 11 0 19 -3
19 -6z m-254 -47 c-10 -10 -19 5 -10 18 6 11 8 11 12 0 2 -7 1 -15 -2 -18z
m-415 -30 c-9 -15 -10 -13 -7 12 6 40 8 43 13 23 2 -10 0 -25 -6 -35z m469 37
c0 -5 -5 -10 -11 -10 -5 0 -7 5 -4 10 3 6 8 10 11 10 2 0 4 -4 4 -10z m-204
-46 c-19 -18 -21 -11 -4 19 7 14 13 17 15 10 3 -7 -3 -20 -11 -29z m-1639 9
c-4 -3 0 -15 10 -25 21 -24 12 -23 -16 1 -16 14 -18 21 -9 24 19 8 22 8 15 0z
m1700 1 c-3 -3 -12 -4 -19 -1 -8 3 -5 6 6 6 11 1 17 -2 13 -5z m20 -16 c-3 -8
-6 -5 -6 6 -1 11 2 17 5 13 3 -3 4 -12 1 -19z m-1739 -33 c-3 -3 -9 2 -12 12
-6 14 -5 15 5 6 7 -7 10 -15 7 -18z m1457 -103 c-7 -8 -215 108 -215 119 0 4
49 -21 109 -55 60 -33 108 -62 106 -64z m39 113 c-4 -8 -11 -12 -16 -9 -6 4
-5 10 3 15 19 12 19 11 13 -6z m456 -35 c0 -5 -5 -10 -11 -10 -5 0 -7 5 -4 10
3 6 8 10 11 10 2 0 4 -4 4 -10z m-480 -20 c0 -5 -7 -7 -15 -4 -8 4 -15 8 -15
10 0 2 7 4 15 4 8 0 15 -4 15 -10z m440 -30 c0 -13 -1 -13 -10 0 -5 8 -10 22
-10 30 0 13 1 13 10 0 5 -8 10 -22 10 -30z m-363 15 c0 -8 -4 -12 -9 -9 -5 3
-6 10 -3 15 9 13 12 11 12 -6z m277 -1 c3 -8 2 -12 -4 -9 -6 3 -10 10 -10 16
0 14 7 11 14 -7z m41 6 c3 -5 1 -10 -4 -10 -6 0 -11 5 -11 10 0 6 2 10 4 10 3
0 8 -4 11 -10z m172 -12 c-3 -8 -6 -5 -6 6 -1 11 2 17 5 13 3 -3 4 -12 1 -19z
m-43 -40 c13 -9 -6 -25 -43 -35 -17 -4 -28 -1 -38 12 -15 21 -17 39 -4 31 5
-4 11 0 14 6 3 10 7 10 19 1 17 -15 27 -8 29 21 1 17 3 16 6 -4 3 -14 10 -28
17 -32z m-116 15 c-12 -15 -22 -18 -14 -4 4 5 0 11 -6 14 -7 3 -3 4 9 4 17 -1
19 -4 11 -14z m-88 -8 c0 -8 -4 -15 -10 -15 -5 0 -7 7 -4 15 4 8 8 15 10 15 2
0 4 -7 4 -15z m60 -22 c0 -12 -51 -73 -62 -73 -6 0 1 11 16 25 14 13 26 31 26
40 0 8 5 15 10 15 6 0 10 -3 10 -7z m50 -38 c6 3 10 1 10 -4 0 -12 -14 -14
-47 -5 -13 4 -20 10 -17 15 3 5 14 5 25 -1 11 -6 24 -8 29 -5z m65 -14 c-3 -6
-11 -11 -17 -11 -6 0 -6 6 2 15 14 17 26 13 15 -4z m2342 -28 c-3 -10 -5 -2
-5 17 0 19 2 27 5 18 2 -10 2 -26 0 -35z m-2820 -5 c-3 -8 -6 -5 -6 6 -1 11 2
17 5 13 3 -3 4 -12 1 -19z m415 -10 c-9 -9 -12 -7 -12 12 0 19 3 21 12 12 9
-9 9 -15 0 -24z m-69 -104 c86 -27 86 -27 59 -42 -33 -17 -224 -12 -260 7 -37
20 -23 44 33 59 28 8 52 19 54 25 2 6 9 3 16 -6 7 -9 51 -29 98 -43z m2515
-70 l-3 -39 -5 47 c-3 26 -1 43 3 39 5 -5 7 -26 5 -47z m-1938 -100 c0 -57 5
-95 15 -114 9 -17 14 -30 13 -30 -2 0 -25 7 -52 15 -60 18 -135 18 -281 1 -60
-7 -114 -11 -119 -8 -12 6 2 -55 24 -105 l19 -43 56 0 c117 0 255 -41 327 -96
20 -16 64 -49 98 -74 55 -41 69 -66 21 -41 -36 20 -37 11 -1 -10 23 -13 27
-18 11 -13 -31 8 -19 -11 23 -37 17 -10 25 -19 19 -19 -19 0 -16 -15 14 -84
83 -187 265 -435 382 -521 39 -29 41 -32 41 -85 0 -30 -5 -71 -10 -90 -12 -45
-37 -79 -47 -65 -5 6 -24 10 -43 10 -32 0 -35 3 -38 33 -2 20 -8 32 -15 29 -6
-2 -22 9 -35 25 -34 40 -60 52 -78 37 -8 -6 -14 -19 -14 -29 0 -26 -25 -31
-44 -8 -18 21 -42 19 -40 -3 1 -8 4 -29 8 -46 7 -29 5 -33 -13 -33 -14 0 -19
-5 -15 -15 12 -29 -21 -14 -37 17 -20 41 -44 51 -29 13 13 -33 13 -32 -6 -39
-12 -5 -14 -1 -9 15 5 15 4 19 -4 15 -17 -11 -13 11 10 57 31 61 55 90 142
179 51 52 87 81 107 85 29 5 42 23 18 23 -7 0 -21 14 -30 30 -9 17 -24 30 -32
30 -21 0 -126 -82 -165 -129 -19 -23 -40 -41 -47 -41 -7 0 -50 25 -96 54 -256
169 -397 309 -513 511 -44 77 -46 83 -44 155 1 41 -2 84 -7 95 -7 18 -6 18 9
6 23 -19 21 -11 -6 27 -13 17 -27 28 -31 24 -4 -4 -6 22 -4 58 l3 65 -92 0
c-50 0 -86 -4 -80 -8 18 -13 -53 2 -98 20 -22 9 -53 28 -69 42 l-28 26 7 -25
c4 -14 4 -22 0 -18 -11 10 -14 68 -4 68 4 0 10 -4 13 -8 3 -5 37 -21 76 -36
65 -26 80 -28 175 -24 90 3 106 6 122 24 35 40 83 56 83 28 0 -14 8 -16 52
-10 29 4 57 11 63 15 24 19 131 103 143 112 26 21 35 -5 23 -61 -6 -29 -9 -55
-6 -58 15 -15 57 24 91 85 65 119 74 119 74 -3z m-1383 60 c-3 -3 -12 -4 -19
-1 -8 3 -5 6 6 6 11 1 17 -2 13 -5z m-267 -14 c21 -7 19 -8 -15 -8 -22 0 -53
4 -70 8 -27 7 -25 8 15 8 25 0 56 -4 70 -8z m562 -184 c10 -7 16 -15 14 -17
-3 -2 5 -5 17 -5 66 -5 182 -26 194 -35 22 -19 15 -30 -13 -23 -19 5 -25 4
-20 -5 9 -14 -52 -15 -103 -1 -20 5 -61 12 -92 15 -31 3 -65 13 -75 21 -18 15
-18 15 6 9 14 -4 45 -9 70 -11 l45 -5 -35 17 c-20 9 -30 18 -22 21 10 4 8 9
-5 19 -10 7 -13 13 -8 13 6 0 18 -6 27 -13z m1059 -2 c59 -18 84 -35 105 -76
20 -39 17 -48 -5 -14 -29 43 -96 84 -149 91 -71 9 -80 13 -41 14 19 0 60 -6
90 -15z m-1076 -95 l40 -19 -45 4 c-25 1 -92 -3 -150 -10 -137 -18 -144 -18
-171 6 l-24 20 35 -14 c30 -12 54 -13 145 -3 l109 11 -40 18 -39 18 50 -6 c28
-4 68 -15 90 -25z m-4348 15 c-3 -3 -12 -4 -19 -1 -8 3 -5 6 6 6 11 1 17 -2
13 -5z m3843 -59 c7 -9 8 -15 2 -15 -5 0 -12 7 -16 15 -3 8 -4 15 -2 15 2 0 9
-7 16 -15z m-4521 -45 c1 -13 0 -13 -9 0 -5 8 -9 24 -9 35 l0 20 9 -20 c5 -11
9 -27 9 -35z m4788 24 c-3 -3 -12 -4 -19 -1 -8 3 -5 6 6 6 11 1 17 -2 13 -5z
m-105 -17 c-46 -6 -84 -6 -105 0 -25 7 -10 9 73 9 l105 0 -73 -9z m-199 -56
c32 -13 97 -15 97 -3 0 4 77 8 170 10 113 2 170 -1 170 -8 0 -5 -3 -10 -7 -10
-5 0 -48 -5 -98 -11 -109 -13 -295 -12 -333 2 -31 12 -72 47 -72 62 0 6 10 1
23 -11 12 -11 35 -25 50 -31z m1076 -23 c-10 -40 -25 -85 -33 -99 -27 -46 -56
-172 -68 -289 -6 -63 -15 -119 -20 -125 -6 -6 -7 2 -4 20 5 24 4 26 -3 10 -9
-19 -10 -18 -11 5 -1 14 -4 19 -7 12 -2 -7 2 -36 11 -65 31 -106 61 -301 45
-291 -10 6 -24 -64 -15 -73 3 -4 6 0 6 9 0 23 37 51 71 55 31 3 31 3 15 -19
-9 -13 -35 -56 -59 -96 -23 -40 -98 -168 -166 -285 -68 -117 -126 -219 -129
-227 -7 -21 33 31 43 55 6 16 10 10 17 -30 13 -66 -5 -205 -37 -294 -14 -38
-25 -72 -25 -76 0 -11 266 2 419 20 149 17 192 10 253 -44 37 -33 41 -43 46
-92 6 -76 -16 -116 -129 -234 -123 -128 -242 -191 -287 -153 -9 9 -38 28 -64
43 -27 15 -48 31 -48 36 0 5 17 9 37 9 50 0 117 35 174 89 41 40 70 93 57 106
-2 2 -31 -3 -63 -11 -72 -18 -96 -23 -155 -30 -42 -5 -50 -2 -118 45 -41 28
-77 51 -82 51 -4 0 -6 26 -4 57 2 40 8 61 20 70 16 12 16 13 -7 14 -53 3 -71
-9 -108 -73 -10 -18 -23 -32 -29 -31 -5 1 -9 -5 -8 -14 1 -13 -9 -18 -40 -21
-53 -4 -60 12 -34 79 11 27 20 59 20 71 0 21 0 21 -15 2 -14 -18 -15 -17 -9
11 11 57 26 100 50 144 28 51 30 58 9 41 -12 -10 -16 -9 -21 6 -3 11 -10 27
-15 37 -15 28 -31 221 -27 333 1 57 0 104 -3 104 -4 0 -10 -35 -14 -77 -4 -43
-11 -88 -16 -101 -5 -13 -16 -90 -24 -170 -25 -245 -41 -292 -99 -292 -19 0
-36 -3 -39 -7 -2 -5 -2 -2 -1 5 2 6 0 12 -5 12 -12 0 -41 80 -41 113 0 32 -50
147 -57 129 -3 -7 0 -27 6 -44 29 -84 -2 -313 -45 -329 -22 -8 -28 -5 101 -44
189 -57 234 -67 356 -79 69 -7 138 -19 154 -27 49 -23 68 -70 69 -164 1 -75
-1 -86 -23 -109 -29 -31 -141 -99 -141 -85 0 5 -10 8 -22 6 -21 -2 -39 -11
-93 -45 -36 -22 -88 -44 -119 -49 -24 -4 -40 2 -69 25 -21 17 -51 34 -67 37
-41 9 -47 25 -20 47 17 14 40 18 104 18 52 0 91 5 110 15 15 8 31 13 35 11 4
-3 8 4 8 15 1 10 -4 19 -10 19 -34 0 -222 -41 -287 -63 -160 -54 -311 -69
-485 -47 -94 12 -159 33 -190 64 -16 15 -17 18 -3 13 13 -5 15 -2 11 11 -3 9
-12 24 -18 32 -7 8 -16 31 -20 50 -4 19 -24 82 -46 140 -21 58 -44 125 -51
150 l-13 45 -3 -99 c-3 -97 -3 -98 -22 -81 -15 14 -20 15 -20 4 0 -17 -36 51
-61 117 -29 76 -49 182 -39 208 4 12 15 28 24 35 9 7 16 21 16 31 0 10 7 37
16 61 9 24 24 76 34 116 10 40 56 148 103 245 94 191 107 239 107 396 0 55 4
92 10 92 6 0 10 11 10 25 0 21 5 25 32 25 17 0 28 3 25 6 -4 4 22 17 56 29 88
31 119 52 361 255 244 204 361 287 509 361 108 55 299 122 407 144 36 7 66 13
66 14 1 0 -7 -32 -17 -71z m-5592 40 c-3 -8 -6 -5 -6 6 -1 11 2 17 5 13 3 -3
4 -12 1 -19z m27 -183 c3 -5 2 20 -1 58 -4 42 -2 67 4 67 14 0 24 -142 11
-158 -13 -15 -3 -111 12 -126 6 -6 6 2 0 25 -6 18 -10 50 -10 69 1 56 16 15
24 -63 9 -92 69 -369 106 -492 24 -79 86 -254 105 -300 20 -46 29 -83 16 -65
-9 12 -11 9 -11 -14 0 -23 3 -26 14 -17 11 9 17 3 31 -31 9 -24 33 -78 53
-121 35 -77 36 -78 67 -73 29 6 37 1 78 -43 52 -56 56 -70 27 -111 -24 -34
-25 -99 -2 -150 14 -31 16 -33 24 -15 6 16 7 14 3 -7 -6 -30 11 -49 18 -21 3
10 5 1 6 -19 0 -21 6 -38 11 -38 6 0 10 -8 9 -17 0 -17 -1 -17 -12 0 -38 58
-97 152 -101 161 -6 15 -31 -16 -89 -111 -27 -43 -84 -135 -128 -205 -43 -70
-79 -130 -79 -132 0 -3 -14 -27 -30 -53 -41 -64 -40 -95 5 -123 32 -20 38 -21
58 -7 47 31 407 392 403 403 -3 8 1 11 10 7 17 -6 18 8 2 27 -11 12 -10 12 5
0 16 -11 21 -10 47 15 36 34 37 46 8 86 l-22 29 26 27 c24 24 29 25 56 14 17
-7 39 -21 51 -32 12 -11 21 -17 21 -14 0 4 19 -7 43 -23 23 -16 54 -37 70 -46
15 -9 27 -23 27 -31 0 -14 -108 -124 -402 -410 -90 -88 -172 -172 -181 -186
-16 -25 -16 -26 8 -49 14 -13 25 -28 25 -34 0 -14 -41 -56 -56 -56 -7 0 -61
40 -121 90 -59 49 -115 90 -123 90 -17 0 -59 39 -145 131 -28 30 -75 80 -105
112 l-54 58 27 24 c33 32 58 32 85 0 12 -14 26 -25 30 -25 14 0 36 30 67 87
l28 52 -93 100 c-58 62 -101 101 -113 101 -31 0 -138 -42 -144 -56 -3 -7 5
-28 18 -45 l23 -32 -28 -24 c-15 -12 -33 -23 -41 -23 -13 0 -255 248 -255 262
0 14 44 48 63 48 10 0 33 -12 50 -26 27 -23 37 -26 81 -20 50 6 664 204 724
233 18 9 28 19 22 23 -25 16 -153 326 -218 530 -43 134 -105 391 -122 505 -26
177 -40 282 -39 310 1 17 5 3 10 -30 5 -33 11 -64 13 -70z m4561 -54 c28 -11
-41 -21 -140 -20 l-80 2 90 12 c114 15 106 15 130 6z m1144 -216 c62 -82 262
-281 341 -339 36 -27 64 -52 63 -57 -2 -5 5 -5 15 -2 9 3 14 3 10 -2 -10 -10
22 -34 46 -35 12 0 16 -5 13 -14 -4 -10 -1 -13 9 -9 12 4 11 -3 -4 -43 -18
-49 -18 -49 -61 -46 -24 1 -57 -5 -77 -14 -61 -29 -262 0 -350 51 -163 95
-212 319 -143 653 l11 53 40 -68 c23 -37 62 -95 87 -128z m2288 -77 c-3 -8 -6
-5 -6 6 -1 11 2 17 5 13 3 -3 4 -12 1 -19z m-4189 -85 c48 -47 54 -63 57 -139
3 -58 31 -134 55 -149 11 -7 13 -106 4 -143 -8 -29 -52 -52 -99 -52 -21 0 -35
-5 -35 -12 -1 -21 -46 94 -54 136 -9 47 -26 86 -38 86 -5 0 -6 10 -3 21 5 15
4 19 -4 15 -7 -5 -11 1 -11 14 0 12 -4 18 -10 15 -6 -3 -7 1 -4 9 3 9 2 16 -3
16 -31 0 8 197 42 211 40 16 66 9 103 -28z m4138 -28 c-9 -44 0 -46 13 -2 20
69 10 -12 -13 -108 -103 -425 -346 -937 -625 -1317 -13 -17 -13 -21 0 -29 8
-5 23 -9 34 -9 16 0 20 7 22 41 2 52 44 115 102 148 52 31 45 24 190 178 113
121 114 122 141 108 41 -21 53 -40 35 -55 -29 -24 -14 -36 83 -64 53 -15 126
-37 161 -48 35 -10 65 -17 67 -16 3 4 -141 247 -156 262 -5 5 -21 0 -38 -12
l-29 -21 -31 22 c-17 12 -32 25 -32 30 0 8 24 36 137 156 l72 76 35 -19 c42
-22 43 -27 15 -66 -16 -21 -20 -37 -16 -62 3 -18 84 -165 181 -326 191 -317
206 -347 206 -399 0 -97 -138 -224 -227 -210 -52 9 -93 52 -93 97 0 65 60 107
138 95 32 -5 43 -3 48 8 6 17 -51 136 -66 138 -19 3 -25 4 -65 17 -22 6 -107
30 -190 52 -82 22 -172 47 -200 55 -89 27 -158 36 -169 24 -8 -8 -7 -13 4 -16
8 -3 81 -72 161 -154 153 -156 170 -166 216 -134 25 18 46 12 67 -20 21 -33
31 -24 -264 -246 -47 -35 -87 -66 -90 -69 -9 -10 -158 -125 -180 -140 -13 -8
-37 -27 -54 -41 -17 -14 -60 -47 -96 -74 -36 -27 -67 -52 -70 -55 -3 -3 -24
-20 -46 -38 -43 -33 -68 -40 -79 -21 -4 6 -24 -6 -48 -31 -59 -58 -125 -98
-208 -126 -83 -28 -135 -30 -209 -8 -72 21 -118 52 -178 120 -29 32 -54 56
-56 53 -8 -8 75 -163 100 -186 20 -18 29 -20 56 -12 46 13 46 13 63 -22 20
-39 16 -44 -83 -102 -131 -77 -142 -81 -168 -67 -21 12 -26 10 -50 -19 -40
-48 -117 -83 -195 -89 -83 -6 -137 18 -209 91 -37 39 -52 48 -69 42 -26 -8
-27 -34 -1 -85 25 -48 32 -53 56 -35 32 24 62 18 79 -15 14 -27 14 -30 -6 -49
-30 -27 -121 -70 -167 -77 -25 -4 -51 0 -76 10 -37 16 -39 15 -58 -9 -32 -40
-102 -76 -162 -82 -60 -6 -138 10 -157 33 -20 24 -30 15 -24 -20 9 -43 -17
-64 -117 -97 -76 -25 -220 -33 -280 -16 -26 7 -28 5 -28 -22 0 -16 -4 -32 -8
-35 -14 -9 -414 -37 -433 -31 -14 5 -19 16 -19 45 0 41 11 50 61 50 18 0 29 5
29 14 0 19 -29 86 -50 116 l-18 25 -147 -11 c-158 -12 -158 -11 -174 -74 -26
-95 -27 -90 14 -90 51 0 75 -15 75 -48 0 -15 -4 -32 -8 -39 -11 -18 -367 -40
-387 -23 -21 18 -20 67 3 74 9 3 36 10 60 16 49 13 57 27 106 180 15 47 42
132 61 190 18 58 57 179 86 270 28 91 53 166 55 168 1 2 35 8 75 13 51 6 76 6
86 -2 7 -6 47 -80 89 -163 42 -83 91 -178 109 -211 18 -33 63 -118 100 -190
78 -150 103 -181 152 -187 26 -3 32 -2 21 6 -35 27 -88 107 -113 171 -35 87
-40 208 -11 266 45 94 164 159 293 162 72 1 173 -25 173 -46 0 -6 15 10 32 35
62 89 207 152 335 146 62 -3 77 -7 110 -34 40 -32 77 -97 115 -201 24 -67 25
-68 47 -54 12 8 11 16 -6 53 -62 130 -55 253 16 331 39 43 117 78 183 85 32 2
58 8 58 11 0 16 -63 128 -80 143 -17 13 -26 14 -56 5 -33 -10 -38 -9 -55 12
-24 29 -24 44 -1 63 27 24 212 128 227 128 17 0 32 -25 150 -255 97 -188 125
-235 111 -185 -4 14 -12 42 -18 63 -26 93 41 214 149 268 26 13 49 27 51 31 2
4 37 13 79 20 l75 12 81 83 c83 84 104 95 127 68 17 -20 27 -12 34 29 4 23 22
49 56 80 27 25 53 46 58 46 20 0 230 311 324 480 159 286 321 684 393 968 20
75 32 98 21 37z m-4561 -45 c3 -5 1 -10 -4 -10 -6 0 -11 5 -11 10 0 6 2 10 4
10 3 0 8 -4 11 -10z m70 -79 c-3 -6 -11 -11 -16 -11 -5 0 -4 6 3 14 14 16 24
13 13 -3z m-1856 -209 c-11 -52 0 -109 32 -154 l24 -33 5 40 6 40 5 -47 c5
-54 -1 -58 -32 -25 -58 60 -70 110 -48 190 14 51 20 43 8 -11z m722 26 c40
-11 119 -71 119 -89 0 -6 -7 -3 -16 5 -24 25 -53 38 -66 30 -7 -4 -8 -3 -4 4
8 13 -30 36 -47 28 -7 -2 -4 -5 6 -5 9 -1 17 -5 17 -11 0 -12 3 -12 -95 -15
-65 -2 -72 -1 -38 6 24 4 51 13 60 19 36 22 -96 2 -150 -23 -46 -22 -87 -56
-261 -214 -34 -31 -40 -34 -48 -19 -5 9 -20 16 -33 16 -14 0 -25 5 -25 11 0 5
5 7 11 3 8 -4 9 1 3 17 -12 37 -7 99 11 126 23 35 27 25 9 -26 -20 -58 -11
-99 23 -107 37 -10 75 14 168 102 140 133 247 175 356 142z m1410 -106 c-4
-34 -5 -35 -12 -12 -4 14 -7 41 -8 60 0 33 0 34 12 12 7 -12 11 -39 8 -60z
m-130 51 c13 -16 12 -17 -3 -4 -17 13 -22 21 -14 21 2 0 10 -8 17 -17z m2529
-23 c0 -5 -5 -10 -11 -10 -5 0 -7 5 -4 10 3 6 8 10 11 10 2 0 4 -4 4 -10z
m-4398 -122 c2 -20 0 -34 -4 -32 -4 3 -8 24 -7 47 1 47 6 41 11 -15z m2002 25
c-4 -16 -13 -39 -21 -53 l-14 -25 6 30 c3 17 7 37 9 45 3 8 5 18 5 23 1 4 6 7
11 7 6 0 8 -11 4 -27z m195 -74 c-9 -17 -13 -19 -20 -8 -14 22 -11 29 11 29
18 0 19 -3 9 -21z m2691 5 c0 -9 -23 -30 -47 -42 -17 -9 -22 -9 -26 3 -4 9 -1
12 8 9 7 -3 22 3 32 14 18 20 33 27 33 16z m-95 -84 c-3 -5 -14 -10 -23 -9
-14 0 -13 2 3 9 27 11 27 11 20 0z m-5985 -421 c0 -5 -4 -9 -10 -9 -5 0 -10 7
-10 16 0 8 5 12 10 9 6 -3 10 -10 10 -16z m1807 -91 c-3 -8 -6 -5 -6 6 -1 11
2 17 5 13 3 -3 4 -12 1 -19z m-1727 -42 c0 -6 -7 -1 -15 10 -8 10 -15 23 -15
28 0 6 7 1 15 -10 8 -10 15 -23 15 -28z m3002 -131 c22 -9 32 -36 16 -47 -23
-14 -43 -9 -78 22 -53 45 -19 58 62 25z m13 -140 c67 -23 74 -35 20 -35 -34 0
-134 55 -175 97 -24 23 -22 23 33 -7 31 -18 86 -42 122 -55z m-2804 -42 c13
-16 12 -17 -3 -4 -17 13 -22 21 -14 21 2 0 10 -8 17 -17z m-20 -10 c13 -16 12
-17 -3 -4 -17 13 -22 21 -14 21 2 0 10 -8 17 -17z m1546 -94 c390 -256 773
-403 1243 -475 88 -14 178 -18 390 -19 280 0 378 9 617 59 61 12 63 12 78 -10
l14 -22 -127 -30 c-260 -62 -442 -78 -712 -63 -295 17 -531 60 -793 146 -278
90 -625 265 -833 419 -23 17 -49 36 -59 41 -14 9 -15 14 -4 38 7 15 14 27 15
27 2 0 79 -50 171 -111z m-802 -29 c6 -4 55 -31 110 -60 138 -73 219 -120 227
-133 8 -14 -57 -136 -94 -177 l-27 -30 -36 17 c-37 18 -42 33 -25 78 6 15 8
36 5 48 -7 24 -111 101 -126 92 -5 -4 -9 -1 -9 5 0 17 -43 29 -59 17 -14 -12
-131 -182 -131 -191 0 -11 146 -86 166 -86 11 0 33 14 47 30 15 17 30 30 35
30 12 0 72 -39 72 -48 0 -10 -133 -211 -159 -239 -24 -27 -34 -28 -54 -8 -8 8
-17 12 -19 9 -3 -2 -11 2 -17 10 -10 12 -9 21 4 46 9 17 14 39 11 48 -5 14
-142 92 -161 92 -10 0 -155 -227 -155 -242 0 -17 26 -42 53 -51 23 -9 22 -32
-5 -62 -22 -26 -47 -32 -64 -16 -5 5 -49 30 -99 57 -95 51 -188 102 -219 120
-14 9 -17 18 -12 37 9 36 41 52 73 38 37 -17 68 -13 90 12 24 27 158 228 180
271 9 17 20 33 24 37 22 14 149 217 149 237 0 15 -10 29 -30 40 -35 20 -38 47
-9 79 l22 22 116 -61 c64 -34 121 -64 126 -68z m-695 100 c0 -5 -2 -10 -4 -10
-3 0 -8 5 -11 10 -3 6 -1 10 4 10 6 0 11 -4 11 -10z m75 -120 c3 -5 1 -10 -4
-10 -6 0 -11 5 -11 10 0 6 2 10 4 10 3 0 8 -4 11 -10z m-198 -55 c43 -30 112
-78 153 -107 185 -128 181 -125 158 -150 -7 -7 -26 -30 -41 -50 -15 -21 -35
-38 -44 -38 -14 0 -72 39 -283 187 -106 76 -130 94 -130 103 0 16 81 110 95
110 8 0 50 -25 92 -55z m4448 -115 c-3 -5 -12 -10 -18 -10 -7 0 -6 4 3 10 19
12 23 12 15 0z m-55 -44 c0 -2 -7 -7 -16 -10 -8 -3 -12 -2 -9 4 6 10 25 14 25
6z m-3150 -252 c94 -37 174 -103 187 -152 14 -56 -4 -119 -80 -276 -42 -87
-77 -165 -77 -174 0 -24 96 -54 115 -36 16 16 135 336 135 364 0 13 -12 26
-35 37 -38 18 -45 44 -20 77 14 18 17 18 122 1 59 -9 125 -21 147 -27 35 -9
38 -12 33 -37 l-6 -28 47 12 c26 7 63 10 82 7 40 -5 96 -43 105 -71 5 -18 9
-18 52 -5 123 37 298 -5 370 -89 12 -14 26 -34 32 -45 11 -20 11 -20 39 6 41
38 116 62 192 62 76 0 219 -32 231 -51 11 -17 0 -170 -14 -186 -5 -7 -22 -13
-36 -13 -38 0 -58 19 -71 67 -6 23 -17 49 -26 58 -17 17 -99 21 -109 5 -4 -6
-10 -8 -15 -5 -10 6 6 -56 17 -65 5 -3 33 -22 63 -41 30 -20 72 -46 93 -60
101 -65 129 -201 56 -283 -34 -40 -87 -67 -149 -77 -90 -15 -317 30 -330 65
-6 19 6 181 15 196 9 14 81 12 93 -2 5 -7 12 -34 16 -59 9 -64 37 -88 104 -90
38 -2 57 3 72 16 41 37 16 71 -100 140 -35 22 -82 58 -103 81 -29 32 -45 41
-62 38 -13 -2 -56 3 -97 12 -144 32 -253 52 -258 47 -3 -3 -4 -35 -4 -72 3
-136 75 -200 226 -201 71 0 91 -16 77 -62 -5 -17 -14 -35 -21 -40 -7 -4 -58
-8 -113 -7 -221 2 -368 101 -396 265 -11 61 -10 78 9 149 11 44 23 88 27 98 5
12 2 17 -9 17 -9 0 -28 11 -41 25 -43 42 -75 35 -121 -28 -29 -39 -104 -230
-104 -263 0 -8 16 -24 35 -35 40 -24 46 -56 16 -83 -18 -17 -23 -17 -93 4 -40
12 -98 28 -128 37 -152 43 -230 68 -283 91 -39 16 -87 64 -87 85 0 8 -19 11
-61 9 -113 -7 -211 47 -249 137 -13 33 -6 121 11 121 5 0 9 4 9 10 0 5 10 21
21 34 61 70 200 77 385 21 18 -6 24 1 42 50 25 65 27 86 10 103 -22 22 -63 14
-94 -19 -62 -66 -137 -69 -188 -8 -31 36 -32 60 -8 101 28 50 83 70 177 64 44
-2 100 -12 125 -22z m-1390 -1137 c14 0 19 -2 12 -4 -45 -17 36 -23 307 -23
170 0 315 -2 322 -4 8 -3 32 -7 54 -10 65 -8 105 -18 105 -25 0 -17 104 -40
202 -45 59 -2 117 -10 129 -17 28 -14 367 -33 452 -25 89 9 377 -25 377 -44 0
-12 -19 -17 -106 -30 -119 -17 -226 -41 -257 -57 -16 -8 -42 -15 -58 -15 -19
-1 -29 -6 -29 -17 0 -14 -2 -14 -10 -1 -8 12 -10 12 -9 -5 0 -11 4 -28 8 -38
6 -17 8 -17 20 -3 18 22 58 20 71 -3 5 -11 10 -51 10 -90 0 -40 4 -71 10 -71
20 0 41 50 48 112 7 59 9 63 35 66 l27 3 0 -86 0 -85 26 6 c20 5 25 3 22 -7
-3 -8 -12 -13 -19 -11 -8 2 -11 0 -7 -4 12 -12 -12 -34 -38 -34 -13 0 -27 7
-32 15 -7 14 -12 14 -43 2 -63 -26 -89 0 -89 90 0 38 -4 63 -11 63 -5 0 -7 5
-4 10 16 25 25 5 25 -56 0 -79 11 -104 47 -104 27 0 63 25 63 44 0 6 -7 0 -16
-12 -36 -51 -65 -14 -61 79 1 49 -2 64 -15 72 -13 9 -21 7 -37 -7 -11 -10 -18
-22 -16 -26 3 -4 -1 -10 -9 -13 -7 -3 -16 -20 -20 -38 -4 -22 -23 -49 -55 -79
l-48 -45 121 -29 c67 -17 148 -31 181 -32 77 -2 75 -1 40 -24 -41 -27 -97 -25
-240 9 -77 18 -137 27 -167 24 -51 -4 -63 9 -30 33 26 20 40 16 15 -5 -22 -18
-22 -18 20 -14 27 3 87 -7 167 -26 135 -34 187 -38 213 -18 14 10 8 12 -40 13
-32 0 -96 11 -143 23 -47 13 -107 27 -135 31 -62 10 -151 43 -178 67 -43 39
-61 132 -35 188 6 14 9 27 7 29 -3 3 -366 36 -398 36 -7 0 -11 -21 -11 -56 0
-55 0 -55 22 -40 27 19 72 21 86 3 6 -7 12 -45 14 -85 3 -74 6 -80 26 -60 9 9
13 7 18 -7 14 -35 -72 -76 -91 -44 -4 6 -7 44 -6 84 1 69 0 74 -21 78 -21 3
-21 4 -5 11 27 13 32 2 37 -87 4 -73 7 -82 26 -85 11 -2 28 7 40 20 14 16 14
19 2 9 -28 -21 -38 -3 -38 73 0 74 -9 96 -42 96 -18 0 -68 -47 -68 -64 0 -6 7
-1 16 10 15 19 16 19 9 -1 -4 -11 -12 -51 -18 -88 -11 -64 -13 -68 -37 -65
l-25 3 -2 144 c-1 79 -5 146 -8 150 -4 3 -54 8 -111 9 -84 3 -113 0 -149 -15
-25 -10 -45 -24 -45 -30 0 -19 -13 -16 -27 6 -14 23 -109 36 -150 20 -15 -6
-66 -14 -113 -17 -78 -6 -85 -9 -82 -27 6 -32 19 -40 47 -27 15 7 24 8 20 2
-3 -5 -1 -10 5 -10 8 0 8 -6 0 -20 -7 -13 -21 -20 -40 -20 -30 0 -30 -1 -30
-54 0 -62 9 -73 49 -56 23 9 27 16 23 39 -4 30 16 79 43 101 9 7 36 16 61 20
40 6 47 4 59 -14 24 -36 8 -64 -46 -83 -53 -19 -57 -27 -33 -61 17 -25 32 -27
68 -11 18 8 27 22 31 50 9 54 73 119 117 119 18 0 43 3 56 6 22 6 22 5 22 -85
0 -76 2 -89 15 -85 9 4 15 19 15 41 0 77 49 127 121 125 38 -1 61 -19 57 -46
-4 -26 -47 -35 -60 -12 -22 40 -64 -3 -53 -54 10 -44 38 -64 80 -56 49 10 48
-20 -1 -40 -40 -17 -78 -12 -107 13 -16 15 -19 15 -40 -5 -28 -27 -63 -28 -78
-4 -11 18 -13 18 -50 -2 -36 -19 -41 -20 -66 -6 -24 14 -33 14 -68 2 -31 -10
-49 -11 -77 -2 -20 6 -40 14 -42 19 -3 5 -24 0 -46 -11 -76 -38 -110 -8 -110
97 0 30 -4 57 -10 60 -17 10 -11 37 9 42 20 5 38 33 21 33 -6 0 -10 -6 -10
-12 0 -9 -3 -9 -9 1 -5 8 -23 14 -41 14 -18 0 -29 5 -27 11 9 22 -20 31 -106
34 -61 3 -93 0 -103 -9 -13 -10 -17 -10 -25 2 -7 11 -9 10 -7 -6 3 -41 -2 -55
-21 -55 -12 0 -21 9 -25 26 -5 20 -12 25 -26 21 -11 -3 -18 -1 -14 4 3 5 1 9
-4 9 -17 0 -22 -30 -22 -137 0 -96 2 -105 20 -110 11 -3 20 -12 20 -19 0 -11
-18 -14 -75 -14 -62 0 -75 3 -75 16 0 9 9 18 20 21 11 3 20 10 21 17 1 35 -3
221 -5 224 -12 11 -59 -15 -72 -39 -20 -40 -34 -36 -34 9 0 23 -5 39 -12 41
-41 6 -138 12 -330 20 -205 8 -217 10 -240 31 -12 13 -17 20 -10 16 7 -4 15
-1 18 9 4 9 12 14 19 11 8 -3 16 2 19 10 3 8 19 14 38 14 20 1 55 15 88 35 73
46 90 53 160 65 33 5 86 14 118 20 33 5 90 6 137 1 44 -4 112 -4 150 1 39 4
122 13 185 19 63 5 138 14 165 18 28 5 61 6 75 3 14 -3 36 -5 50 -5z m3262
-355 l-4 -163 26 7 c32 8 34 -8 4 -36 -28 -25 -59 -22 -73 7 -11 22 -12 22
-31 3 -10 -10 -28 -20 -39 -21 -26 -4 -65 10 -65 22 0 5 -13 0 -29 -12 -21
-15 -37 -20 -55 -15 -25 6 -26 9 -26 86 0 83 -8 101 -34 74 -18 -17 -24 -36
-34 -109 -6 -45 -10 -50 -32 -50 -24 0 -25 2 -28 81 -3 76 -4 82 -22 77 -14
-4 -20 0 -20 10 0 19 37 47 62 47 24 0 48 -39 42 -69 -4 -22 -3 -23 5 -6 5 12
16 27 25 34 29 24 46 -3 46 -74 0 -35 3 -70 6 -79 8 -20 38 -21 53 -2 9 11 8
14 -6 12 -16 -1 -19 10 -23 78 -6 95 -21 112 -73 83 l-32 -19 19 21 c21 23 65
28 84 9 7 -7 12 -42 12 -86 0 -64 2 -73 16 -68 9 3 20 6 25 6 5 0 9 14 9 30 0
63 61 130 118 130 20 0 22 5 22 54 0 49 -2 54 -20 49 -33 -9 -24 22 13 40 62
31 62 29 59 -151z m929 66 c1 -57 1 -107 0 -112 -1 -5 10 -1 24 8 50 33 85 -5
71 -76 -3 -18 -14 -40 -23 -50 -9 -10 -11 -18 -5 -18 5 0 22 14 36 31 19 23
26 42 26 74 0 68 -34 91 -92 61 -16 -8 -28 -11 -28 -7 0 11 47 31 75 31 13 0
30 -9 39 -21 l14 -21 22 22 c14 14 31 20 48 18 27 -3 27 -4 30 -86 2 -71 5
-83 18 -78 9 3 20 6 26 6 6 0 8 10 4 23 -3 13 -1 40 5 61 18 66 106 99 150 55
19 -19 20 -23 5 -37 -14 -15 -18 -14 -45 6 -27 20 -31 20 -45 6 -21 -20 -20
-73 0 -102 13 -19 24 -23 57 -20 23 1 42 -2 44 -8 3 -10 -29 -12 -84 -5 -24 2
-46 62 -40 108 4 43 4 43 -14 27 -29 -27 -26 -104 6 -134 20 -19 32 -22 70
-17 28 3 43 1 38 -4 -26 -26 -133 0 -133 31 0 6 -13 -4 -28 -21 -23 -26 -33
-31 -55 -25 -26 6 -27 8 -27 86 0 44 -3 80 -7 80 -19 -1 -32 -18 -43 -59 -14
-53 -45 -86 -95 -100 -43 -12 -79 -1 -94 28 -6 11 -11 79 -11 154 0 119 -2
135 -16 133 -33 -2 -24 22 13 37 63 27 63 27 64 -85z m2689 4 c0 -54 3 -101 6
-104 3 -3 19 -1 35 6 27 10 33 8 46 -9 14 -20 14 -75 -2 -120 -5 -15 -1 -14
19 8 19 21 26 39 26 69 0 69 -46 98 -98 62 -12 -8 -22 -11 -22 -6 0 12 46 32
75 32 31 0 59 -41 58 -85 -1 -45 -28 -92 -63 -110 -37 -19 -104 -20 -120 0
-11 13 -15 12 -37 -5 -14 -11 -34 -20 -44 -20 -22 0 -51 51 -43 77 5 17 5 17
-6 1 -18 -29 -49 -41 -66 -27 -38 32 1 139 51 139 28 0 34 -16 33 -86 0 -55
15 -94 36 -94 17 0 48 35 39 43 -3 4 -1 7 5 7 9 0 12 39 12 135 0 113 -2 135
-14 133 -30 -6 -20 18 14 34 59 30 60 28 60 -80z m-3255 -39 c21 -54 46 -118
55 -143 9 -25 27 -49 39 -55 43 -20 24 -35 -44 -35 -49 0 -65 3 -65 14 0 8 5
16 12 18 9 3 6 19 -9 59 -18 48 -24 54 -51 57 -27 3 -33 -2 -51 -37 -26 -50
-26 -67 -1 -81 11 -6 18 -15 15 -21 -7 -10 -118 -13 -128 -2 -4 3 8 20 26 38
29 28 47 66 122 248 8 20 21 37 29 37 8 0 29 -39 51 -97z m2698 -20 c26 -65
51 -131 57 -146 5 -16 19 -31 30 -34 11 -3 20 -12 20 -19 0 -11 -16 -14 -65
-14 -51 0 -65 3 -65 15 0 8 5 15 10 15 15 0 12 23 -10 74 -17 40 -23 46 -49
46 -26 0 -34 -7 -51 -40 -24 -47 -26 -80 -5 -80 8 0 15 -7 15 -15 0 -12 -13
-15 -59 -15 -33 0 -62 4 -66 9 -3 5 7 19 23 30 21 14 44 57 87 155 32 75 64
136 71 136 6 0 32 -53 57 -117z m-4325 95 c19 -19 14 -73 -9 -102 -25 -32 -48
-22 -30 12 16 29 14 39 -9 45 -19 5 -27 36 -13 50 11 11 48 8 61 -5z m2427
-33 c0 -35 -31 -47 -51 -20 -18 25 0 57 29 53 17 -2 22 -10 22 -33z m-4665 -5
c0 -5 -11 -10 -25 -10 -14 0 -25 5 -25 10 0 6 11 10 25 10 14 0 25 -4 25 -10z
m5080 -51 c0 -17 5 -20 33 -17 26 2 32 0 32 -17 0 -16 -6 -20 -32 -19 l-33 2
0 -59 c0 -66 14 -81 53 -60 17 9 23 22 23 52 2 53 31 91 78 103 104 27 166
-102 85 -180 -36 -34 -100 -37 -132 -6 l-20 21 -30 -21 c-32 -23 -85 -27 -98
-6 -5 7 -9 44 -9 81 0 51 -4 69 -15 73 -19 8 -20 34 0 34 8 0 20 9 27 20 17
26 38 26 38 -1z m-2640 -94 c0 -78 1 -83 20 -78 14 4 20 0 20 -10 0 -19 -37
-47 -62 -47 -21 0 -50 52 -42 77 5 17 5 17 -6 1 -18 -29 -49 -41 -66 -27 -16
13 -19 72 -4 100 6 11 7 19 1 19 -16 0 -42 -70 -39 -108 3 -32 7 -37 31 -40
16 -2 40 4 55 14 26 17 26 17 12 0 -19 -23 -53 -36 -78 -29 -31 8 -42 50 -26
103 18 63 62 103 122 110 26 3 50 4 55 2 4 -2 7 -41 7 -87z m580 -1 c0 -81 1
-85 20 -79 14 4 20 2 20 -9 0 -18 -38 -46 -62 -46 -21 0 -50 52 -41 75 3 10
-4 7 -20 -9 -30 -30 -40 -32 -57 -11 -17 20 -7 91 16 116 11 12 28 19 43 17
25 -3 26 -6 27 -69 3 -101 29 -135 70 -86 10 12 12 16 4 10 -26 -23 -30 -14
-30 71 l0 84 -35 6 c-71 14 -140 -60 -133 -142 3 -32 7 -37 31 -40 16 -2 40 4
55 14 27 17 27 17 9 -3 -44 -50 -107 -28 -107 38 0 78 53 140 128 149 26 3 50
4 55 2 4 -2 7 -41 7 -88z m1300 0 c0 -81 1 -85 20 -79 14 4 20 2 20 -9 0 -18
-38 -46 -62 -46 -21 0 -50 52 -42 77 5 17 5 17 -6 1 -18 -29 -49 -41 -66 -27
-19 15 -18 79 2 107 8 12 10 22 5 22 -15 0 -51 -74 -51 -104 0 -41 11 -56 39
-56 15 0 38 8 51 17 l25 17 -19 -22 c-21 -24 -74 -30 -94 -10 -16 16 -15 83 2
116 25 48 64 76 114 82 26 3 50 4 55 2 4 -2 7 -41 7 -88z m-4271 59 c30 -37
36 -68 22 -114 -20 -67 -89 -96 -150 -64 -47 24 -63 92 -35 150 18 39 45 53
101 54 34 1 46 -4 62 -26z m2019 11 c8 -14 10 -14 21 0 17 20 55 21 71 1 19
-23 4 -45 -29 -45 -28 0 -30 -3 -40 -52 -6 -29 -11 -64 -13 -78 -2 -19 -9 -25
-28 -25 -25 0 -25 2 -28 88 -2 75 -5 87 -17 77 -18 -15 -36 -4 -28 16 6 16 42
10 56 -10 4 -6 6 -44 5 -83 -1 -40 1 -76 5 -80 17 -16 29 21 30 91 0 86 -12
111 -51 101 -15 -4 -21 -2 -17 5 10 16 53 12 63 -6z m484 -3 c11 -18 12 -18
32 0 26 25 72 25 85 0 6 -10 11 -48 12 -84 2 -65 3 -66 25 -61 30 8 31 -9 2
-36 -49 -45 -78 -19 -78 70 0 78 -10 99 -34 75 -18 -18 -24 -37 -34 -110 -6
-45 -10 -50 -32 -50 -24 0 -25 2 -28 83 -2 72 -5 82 -17 72 -23 -19 -31 16
-10 40 23 25 61 26 77 1z m1488 2 c10 -17 10 -17 20 0 22 35 91 9 76 -29 -4
-11 -14 -15 -32 -11 -30 5 -41 -17 -52 -103 -6 -50 -9 -55 -32 -55 -24 0 -25
2 -30 93 -5 91 2 120 15 62 4 -17 6 -52 5 -78 -3 -65 -2 -72 14 -72 17 0 28
94 16 145 -12 52 -24 62 -55 45 -16 -9 -21 -16 -14 -21 8 -5 8 -8 0 -13 -25
-16 -32 7 -10 30 26 28 64 31 79 7z m1522 -2 c12 -19 12 -19 36 0 58 45 92 15
92 -82 0 -38 3 -69 8 -69 17 1 34 19 27 30 -26 42 40 140 95 140 33 0 90 -25
90 -39 0 -11 19 -9 38 2 24 16 32 -6 32 -89 0 -68 3 -84 15 -84 11 0 16 12 17
43 7 140 -14 186 -64 140 -10 -9 -18 -11 -18 -5 0 13 32 32 54 32 9 0 24 -13
34 -30 17 -27 20 -28 35 -13 29 30 46 1 49 -85 3 -69 5 -77 24 -80 11 -2 28 7
40 20 16 19 16 20 1 9 -27 -21 -36 -4 -39 78 -4 90 -19 107 -71 78 l-32 -19
19 21 c23 25 58 27 80 5 12 -11 16 -35 16 -85 0 -69 0 -69 25 -63 15 4 25 2
25 -5 0 -15 -41 -51 -60 -51 -31 0 -40 23 -40 96 0 72 -6 89 -26 76 -20 -13
-35 -52 -42 -110 -6 -52 -9 -57 -32 -57 -24 0 -25 2 -28 81 -3 77 -4 82 -23
77 -14 -4 -19 -12 -16 -25 8 -29 -10 -82 -37 -107 -30 -28 -98 -31 -127 -6
-18 18 -20 17 -42 -3 -51 -48 -77 -22 -77 74 0 72 -6 89 -26 76 -20 -13 -35
-52 -42 -110 -6 -52 -9 -57 -32 -57 -24 0 -25 2 -28 81 -3 76 -4 82 -22 77
-28 -7 -26 22 2 41 30 21 55 20 70 -3z m1166 3 c8 -14 10 -14 21 0 28 33 91 8
77 -30 -4 -11 -14 -15 -32 -11 -30 5 -41 -17 -52 -103 -6 -50 -9 -55 -31 -55
-13 0 -26 6 -28 13 -3 6 0 12 6 12 6 0 11 -4 11 -10 0 -5 6 -10 14 -10 28 0
27 163 -3 193 -5 5 -17 7 -26 3 -15 -5 -15 -7 -1 -22 18 -18 23 -114 6 -114
-6 0 -10 6 -9 13 1 6 1 32 0 56 -1 37 -3 42 -16 31 -15 -13 -39 -5 -29 11 3 5
10 6 16 3 6 -4 8 -2 4 4 -7 12 20 31 46 32 9 0 21 -7 26 -16z m292 -70 c0 -59
4 -84 12 -84 9 0 9 -3 0 -12 -19 -19 -24 -3 -23 81 l1 80 -34 6 c-70 14 -141
-62 -134 -143 3 -32 7 -37 31 -40 16 -2 40 4 55 14 l27 17 -19 -21 c-21 -24
-74 -30 -94 -10 -31 31 -5 127 47 171 26 22 41 26 82 26 l49 -2 0 -83z m385
70 c9 -9 14 -21 12 -28 -6 -17 -42 -19 -57 -1 -16 19 -30 19 -30 1 0 -8 15
-25 33 -37 63 -45 72 -75 32 -114 -30 -31 -77 -33 -106 -4 -16 16 -18 23 -8
35 15 19 22 18 49 -6 29 -25 40 -25 40 -1 0 11 -15 30 -32 42 -63 42 -73 74
-38 109 24 24 82 27 105 4z m-1075 -73 c0 -14 -12 -21 -57 -30 -79 -16 -93
-14 -93 9 0 14 9 21 38 25 20 4 42 8 47 10 6 2 22 4 38 4 20 1 27 -4 27 -18z
m370 -81 c0 -5 -2 -10 -4 -10 -3 0 -8 5 -11 10 -3 6 -1 10 4 10 6 0 11 -4 11
-10z m-6935 -150 c-3 -5 -18 -10 -33 -10 -21 0 -24 2 -12 10 20 13 53 13 45 0z
m445 -10 c0 -5 -17 -10 -37 -10 -28 0 -34 3 -23 10 20 13 60 13 60 0z m-435
-70 c-8 -13 -85 -13 -105 0 -11 7 4 10 48 10 40 0 61 -4 57 -10z"/>
<path d="M6845 8680 c3 -5 11 -10 16 -10 6 0 7 5 4 10 -3 6 -11 10 -16 10 -6
0 -7 -4 -4 -10z"/>
<path d="M7850 8493 c0 -4 5 -15 10 -23 8 -13 10 -13 10 2 0 9 -4 20 -10 23
-5 3 -10 3 -10 -2z"/>
<path d="M7701 8464 c0 -11 3 -14 6 -6 3 7 2 16 -1 19 -3 4 -6 -2 -5 -13z"/>
<path d="M7670 8461 c0 -5 5 -13 10 -16 6 -3 10 -2 10 4 0 5 -4 13 -10 16 -5
3 -10 2 -10 -4z"/>
<path d="M7905 8399 c-4 -6 -5 -12 -2 -15 2 -3 7 2 10 11 7 17 1 20 -8 4z"/>
<path d="M7940 8320 c-9 -6 -10 -10 -3 -10 6 0 15 5 18 10 8 12 4 12 -15 0z"/>
<path d="M7965 8290 c3 -5 8 -10 11 -10 2 0 4 5 4 10 0 6 -5 10 -11 10 -5 0
-7 -4 -4 -10z"/>
<path d="M8487 8143 c4 -10 2 -14 -4 -10 -7 4 -12 -7 -15 -30 -3 -28 1 -42 19
-61 13 -14 23 -30 24 -36 1 -15 17 34 18 58 1 13 -4 16 -16 11 -15 -5 -16 -4
-5 7 11 11 16 9 29 -7 8 -11 13 -13 9 -5 -3 8 -9 23 -12 33 -4 9 -10 17 -14
17 -4 0 -10 9 -13 20 -3 11 -10 20 -16 20 -6 0 -7 -7 -4 -17z m23 -33 c0 -5
-4 -10 -10 -10 -5 0 -10 5 -10 10 0 6 5 10 10 10 6 0 10 -4 10 -10z m-20 -36
c0 -8 -5 -12 -10 -9 -6 4 -8 11 -5 16 9 14 15 11 15 -7z"/>
<path d="M8526 7977 c-23 -61 -19 -72 5 -13 11 27 18 50 16 53 -2 2 -12 -16
-21 -40z"/>
<path d="M8616 7844 c-4 -20 -5 -38 -2 -41 2 -3 8 11 12 31 3 21 4 39 1 42 -2
3 -8 -11 -11 -32z"/>
<path d="M7593 7633 c-9 -3 -10 -9 -1 -23 10 -15 8 -22 -13 -40 l-24 -21 25 7
c14 3 26 7 27 8 0 0 4 18 7 39 6 36 3 40 -21 30z"/>
<path d="M6490 7626 c0 -2 8 -10 18 -17 15 -13 16 -12 3 4 -13 16 -21 21 -21
13z"/>
<path d="M7632 7605 c0 -16 2 -22 5 -12 2 9 2 23 0 30 -3 6 -5 -1 -5 -18z"/>
<path d="M7515 7574 l-30 -14 29 3 c17 2 32 9 34 15 4 14 5 14 -33 -4z"/>
<path d="M7440 7566 c0 -2 7 -9 15 -16 9 -7 15 -8 15 -2 0 5 -7 12 -15 16 -8
3 -15 4 -15 2z"/>
<path d="M6560 7485 c0 -8 4 -15 10 -15 5 0 7 7 4 15 -4 8 -8 15 -10 15 -2 0
-4 -7 -4 -15z"/>
<path d="M6645 7471 c-3 -5 -1 -12 5 -16 5 -3 10 1 10 9 0 18 -6 21 -15 7z"/>
<path d="M6655 7330 c3 -5 8 -10 11 -10 2 0 4 5 4 10 0 6 -5 10 -11 10 -5 0
-7 -4 -4 -10z"/>
<path d="M6670 7290 c0 -5 4 -10 9 -10 6 0 13 5 16 10 3 6 -1 10 -9 10 -9 0
-16 -4 -16 -10z"/>
<path d="M8115 7239 c-4 -6 -5 -12 -2 -15 2 -3 7 2 10 11 7 17 1 20 -8 4z"/>
<path d="M6762 7210 c0 -14 2 -19 5 -12 2 6 2 18 0 25 -3 6 -5 1 -5 -13z"/>
<path d="M8074 7209 c-4 -7 -3 -9 4 -5 5 3 13 0 15 -6 4 -9 6 -10 6 -1 1 17
-16 25 -25 12z"/>
<path d="M6801 7194 c0 -11 3 -14 6 -6 3 7 2 16 -1 19 -3 4 -6 -2 -5 -13z"/>
<path d="M6680 7180 c0 -5 5 -10 11 -10 5 0 7 5 4 10 -3 6 -8 10 -11 10 -2 0
-4 -4 -4 -10z"/>
<path d="M6785 7151 c-8 -27 -4 -33 12 -16 6 6 7 18 3 25 -6 9 -10 7 -15 -9z"/>
<path d="M7961 7015 c-17 -20 -31 -38 -31 -40 0 -12 10 -2 40 35 39 49 33 53
-9 5z"/>
<path d="M8171 6914 c-100 -127 -201 -226 -341 -335 -149 -115 -150 -118 -12
-37 62 37 262 222 262 242 0 6 8 16 19 23 10 6 40 42 66 80 27 37 51 70 55 73
8 7 41 60 37 60 -2 0 -40 -48 -86 -106z"/>
<path d="M7889 6923 c-13 -16 -12 -17 4 -4 9 7 17 15 17 17 0 8 -8 3 -21 -13z"/>
<path d="M6477 6669 c7 -7 15 -10 18 -7 3 3 -2 9 -12 12 -14 6 -15 5 -6 -5z"/>
<path d="M6587 6619 c7 -7 15 -10 18 -7 3 3 -2 9 -12 12 -14 6 -15 5 -6 -5z"/>
<path d="M6395 6609 c-4 -6 -5 -12 -2 -15 2 -3 7 2 10 11 7 17 1 20 -8 4z"/>
<path d="M6964 6436 c11 -9 24 -16 30 -16 12 0 7 5 -24 19 -24 11 -24 11 -6
-3z"/>
<path d="M7118 6362 c50 -26 92 -52 92 -58 0 -16 -72 -185 -155 -364 -85 -184
-96 -210 -90 -210 5 0 55 103 112 233 19 43 42 92 53 110 34 60 102 228 96
242 -3 8 -2 16 2 18 4 2 1 2 -6 0 -7 -1 -52 15 -98 37 -116 55 -120 49 -6 -8z"/>
<path d="M6156 6045 c-9 -26 -7 -32 5 -12 6 10 9 21 6 23 -2 3 -7 -2 -11 -11z"/>
<path d="M6056 5815 c-9 -26 -7 -32 5 -12 6 10 9 21 6 23 -2 3 -7 -2 -11 -11z"/>
<path d="M6947 5701 c-4 -17 -3 -21 5 -13 5 5 8 16 6 23 -3 8 -7 3 -11 -10z"/>
<path d="M6887 5565 c-24 -50 -20 -58 4 -12 11 22 19 41 17 43 -3 2 -12 -12
-21 -31z"/>
<path d="M5528 9003 c7 -3 16 -2 19 1 4 3 -2 6 -13 5 -11 0 -14 -3 -6 -6z"/>
<path d="M2256 7811 l-109 -109 32 -108 c73 -247 182 -470 353 -721 70 -103
100 -137 58 -65 -61 103 -83 148 -129 271 -83 221 -110 358 -110 556 -1 104 8
195 24 258 4 15 3 27 -2 27 -4 0 -57 -49 -117 -109z"/>
<path d="M1947 7451 c-23 -26 -37 -51 -37 -68 0 -32 100 -225 172 -331 28 -42
68 -102 89 -132 20 -30 64 -84 98 -120 l62 -65 -39 60 c-122 190 -232 429
-277 605 -25 96 -26 97 -68 51z"/>
<path d="M3520 6506 c0 -2 9 -6 20 -9 11 -3 20 -1 20 4 0 5 -9 9 -20 9 -11 0
-20 -2 -20 -4z"/>
<path d="M3524 6406 c-4 -10 -13 -15 -20 -12 -8 3 -11 0 -7 -10 3 -10 12 -13
22 -8 9 4 43 9 76 11 60 5 103 23 53 23 -14 0 -46 3 -71 6 -38 6 -48 4 -53
-10z"/>
<path d="M3466 6345 c3 -8 13 -15 21 -15 8 0 12 -4 8 -9 -3 -5 -1 -12 4 -15
20 -12 4 25 -17 40 -20 13 -21 13 -16 -1z"/>
<path d="M3524 6305 c3 -8 1 -15 -4 -15 -14 0 -12 -27 2 -36 7 -4 8 -3 4 4 -3
6 3 16 14 22 17 9 19 14 9 26 -15 19 -33 18 -25 -1z"/>
<path d="M3538 6233 c7 -3 16 -2 19 1 4 3 -2 6 -13 5 -11 0 -14 -3 -6 -6z"/>
<path d="M3540 6216 c0 -4 7 -14 15 -22 8 -9 15 -11 15 -6 0 5 -7 15 -15 22
-8 7 -15 9 -15 6z"/>
<path d="M2930 6074 c0 -5 28 -36 62 -69 l62 -60 -59 65 c-32 36 -60 67 -62
69 -2 2 -3 0 -3 -5z"/>
<path d="M4125 5985 c0 -27 10 -33 19 -12 3 6 5 3 4 -8 -1 -11 2 -31 6 -43 11
-33 -2 -120 -16 -101 -7 10 -8 8 -3 -8 6 -23 -12 -70 -22 -59 -4 3 -14 0 -22
-8 -12 -11 -21 -12 -31 -5 -12 9 -11 10 5 4 15 -5 17 -3 8 6 -15 15 -36 1 -28
-20 4 -10 3 -12 -3 -6 -6 6 -12 19 -15 30 -4 16 -5 14 -6 -6 -1 -35 26 -99 42
-99 23 0 59 42 85 99 33 71 38 191 9 234 -22 34 -32 34 -32 2z"/>
<path d="M2861 5854 c0 -11 3 -14 6 -6 3 7 2 16 -1 19 -3 4 -6 -2 -5 -13z"/>
<path d="M3930 5836 c0 -2 8 -10 18 -17 15 -13 16 -12 3 4 -13 16 -21 21 -21
13z"/>
<path d="M4565 5800 c3 -5 10 -10 16 -10 5 0 9 5 9 10 0 6 -7 10 -16 10 -8 0
-12 -4 -9 -10z"/>
<path d="M4111 5774 c0 -11 3 -14 6 -6 3 7 2 16 -1 19 -3 4 -6 -2 -5 -13z"/>
<path d="M4100 5626 c0 -2 7 -7 16 -10 8 -3 12 -2 9 4 -6 10 -25 14 -25 6z"/>
<path d="M3071 5606 c10 -9 89 -46 89 -41 0 5 -75 45 -86 45 -4 0 -5 -2 -3 -4z"/>
<path d="M4338 5471 c48 -60 87 -140 102 -207 7 -28 10 -144 9 -288 -2 -250 4
-336 26 -336 9 0 10 13 3 53 -15 84 -10 211 14 380 16 115 28 164 40 177 10
11 17 23 16 27 0 4 13 39 30 76 18 38 32 70 32 72 0 1 -29 -27 -64 -63 -57
-59 -66 -65 -81 -52 -9 7 -14 22 -12 32 3 10 2 16 -2 13 -5 -2 -14 13 -21 34
-12 37 -78 116 -97 116 -4 0 -14 4 -22 9 -7 5 5 -14 27 -43z"/>
<path d="M3184 5400 c28 -11 51 -18 53 -16 5 5 -74 36 -90 36 -6 -1 10 -10 37
-20z"/>
<path d="M3203 5195 c-9 -24 1 -27 15 -5 8 13 8 20 2 20 -6 0 -13 -7 -17 -15z"/>
<path d="M3385 5040 c3 -5 18 -10 32 -10 32 0 28 5 -10 14 -19 4 -26 3 -22 -4z"/>
<path d="M3332 5010 c0 -14 2 -19 5 -12 2 6 2 18 0 25 -3 6 -5 1 -5 -13z"/>
<path d="M3458 4943 c6 -3 12 -9 12 -14 0 -5 9 -9 20 -9 11 0 20 5 20 10 0 6
-6 10 -12 10 -7 0 -22 2 -33 4 -11 2 -14 1 -7 -1z"/>
<path d="M3528 4923 c6 -2 18 -2 25 0 6 3 1 5 -13 5 -14 0 -19 -2 -12 -5z"/>
<path d="M3470 4886 c0 -2 8 -10 18 -17 15 -13 16 -12 3 4 -13 16 -21 21 -21
13z"/>
<path d="M3868 4693 c7 -3 16 -2 19 1 4 3 -2 6 -13 5 -11 0 -14 -3 -6 -6z"/>
<path d="M3738 4683 c18 -2 45 -2 60 0 15 2 0 4 -33 4 -33 0 -45 -2 -27 -4z"/>
<path d="M4072 4448 c-7 -7 -12 -16 -12 -21 0 -5 7 -1 16 8 9 9 14 18 12 20
-2 3 -10 -1 -16 -7z"/>
<path d="M4254 4429 c-3 -6 -25 -19 -48 -29 -22 -10 -34 -19 -25 -19 9 -1 30
6 46 14 34 17 62 45 45 45 -6 0 -14 -5 -18 -11z"/>
<path d="M4370 4359 c0 -5 5 -7 10 -4 6 3 10 8 10 11 0 2 -4 4 -10 4 -5 0 -10
-5 -10 -11z"/>
<path d="M4310 4329 c-19 -10 -46 -19 -60 -19 -14 -1 -19 -4 -12 -7 21 -8 75
6 102 27 31 24 17 24 -30 -1z"/>
<path d="M4338 4263 c7 -3 16 -2 19 1 4 3 -2 6 -13 5 -11 0 -14 -3 -6 -6z"/>
<path d="M4370 4259 c0 -6 -10 -25 -22 -42 l-22 -32 41 35 c47 40 52 50 23 50
-11 0 -20 -5 -20 -11z"/>
<path d="M4404 4170 c0 -13 4 -16 10 -10 7 7 7 13 0 20 -6 6 -10 3 -10 -10z"/>
<path d="M4020 3983 c0 -6 8 -17 18 -24 16 -13 16 -13 2 6 -8 11 -16 22 -17
24 -2 2 -3 0 -3 -6z"/>
<path d="M4765 6720 c-3 -6 1 -7 9 -4 18 7 21 14 7 14 -6 0 -13 -4 -16 -10z"/>
<path d="M4822 6514 c-29 -14 -52 -30 -52 -36 0 -6 7 -7 18 -3 46 20 123 35
182 36 63 1 64 1 35 14 -49 23 -124 18 -183 -11z"/>
<path d="M5333 6459 c-41 -20 -79 -69 -111 -143 -15 -34 -9 -47 8 -17 6 12 15
21 21 21 6 0 4 -7 -5 -15 -20 -21 -10 -44 23 -51 14 -3 34 -8 43 -10 21 -6 58
29 58 56 0 28 15 25 40 -7 20 -26 21 -28 3 -41 -17 -13 -16 -14 7 -8 14 3 28
6 33 6 14 0 7 45 -13 74 -17 27 -23 30 -69 27 -49 -2 -91 14 -91 35 0 6 12 21
26 35 21 19 36 24 82 23 33 0 70 -7 89 -17 27 -14 32 -14 37 -2 3 8 2 14 -2
13 -4 -1 -27 8 -52 20 -56 27 -75 27 -127 1z m15 -158 c3 -8 -1 -12 -9 -9 -7
2 -15 10 -17 17 -3 8 1 12 9 9 7 -2 15 -10 17 -17z"/>
<path d="M4886 6408 c5 -7 3 -8 -5 -4 -12 8 -70 -11 -72 -23 0 -3 -2 -18 -4
-33 -4 -28 4 -34 62 -48 40 -10 73 11 73 46 0 13 5 24 10 24 16 0 50 -39 50
-57 1 -17 1 -17 11 0 8 14 6 25 -6 44 -16 24 -16 26 -1 20 10 -4 15 -3 11 3
-3 6 -17 10 -30 10 -13 0 -26 4 -29 9 -3 4 -18 6 -33 4 -22 -4 -25 -2 -13 6
12 9 11 11 -8 11 -15 0 -21 -4 -16 -12z m21 -54 c-3 -3 -12 -4 -19 -1 -8 3 -5
6 6 6 11 1 17 -2 13 -5z"/>
<path d="M5320 6370 c0 -6 7 -10 15 -10 8 0 15 2 15 4 0 2 -7 6 -15 10 -8 3
-15 1 -15 -4z"/>
<path d="M4590 6158 c0 -4 4 -8 9 -8 6 0 12 4 15 8 3 5 -1 9 -9 9 -8 0 -15 -4
-15 -9z"/>
<path d="M5027 6164 c-14 -14 25 -44 49 -38 16 4 24 2 24 -6 0 -7 7 -10 16 -6
8 3 12 2 9 -4 -3 -6 -2 -10 4 -10 5 0 12 4 16 10 7 12 -47 40 -79 40 -13 0
-26 5 -28 11 -2 5 -7 7 -11 3z"/>
<path d="M5191 6133 c-19 -9 -29 -19 -22 -21 6 -2 26 6 44 17 39 25 25 27 -22
4z"/>
<path d="M5048 6045 c-3 -4 -39 -6 -79 -7 -41 0 -67 -3 -59 -7 20 -8 104 -62
110 -71 15 -21 95 -51 122 -46 29 6 61 29 53 38 -6 5 18 30 58 59 15 11 27 26
27 32 0 7 -7 4 -15 -7 -12 -16 -19 -17 -62 -8 -66 15 -148 23 -155 17z m32
-50 c14 -1 36 -3 50 -5 l25 -2 -25 -7 c-31 -9 -98 2 -113 19 -10 10 -7 11 13
5 14 -4 36 -8 50 -10z m100 -35 c0 -15 -39 -27 -78 -24 -56 4 -57 20 -2 18 28
-2 50 2 50 7 0 5 7 9 15 9 8 0 15 -5 15 -10z"/>
<path d="M6773 6353 c9 -2 23 -2 30 0 6 3 -1 5 -18 5 -16 0 -22 -2 -12 -5z"/>
<path d="M6352 5960 c0 -14 2 -19 5 -12 2 6 2 18 0 25 -3 6 -5 1 -5 -13z"/>
<path d="M6938 5925 c-18 -58 -19 -65 -9 -65 6 0 11 6 11 14 0 8 4 16 8 18 5
2 5 14 2 28 -6 23 -7 23 -12 5z"/>
<path d="M6468 5933 c7 -3 16 -2 19 1 4 3 -2 6 -13 5 -11 0 -14 -3 -6 -6z"/>
<path d="M6244 5825 c11 -8 22 -12 25 -9 6 6 -19 24 -34 24 -5 -1 -1 -7 9 -15z"/>
<path d="M6742 5588 c2 -5 7 -9 11 -9 4 1 14 1 22 1 26 0 16 15 -10 16 -15 1
-25 -2 -23 -8z"/>
<path d="M7024 5164 c-20 -21 -21 -23 -3 -21 10 1 22 10 25 20 8 26 2 26 -22
1z"/>
<path d="M6738 5064 c-46 -101 -35 -155 37 -192 18 -9 20 -7 22 22 1 17 -5 63
-12 101 -8 39 -16 84 -17 100 -3 28 -5 25 -30 -31z"/>
<path d="M6893 5103 c15 -2 39 -2 55 0 15 2 2 4 -28 4 -30 0 -43 -2 -27 -4z"/>
<path d="M6808 5093 c6 -2 18 -2 25 0 6 3 1 5 -13 5 -14 0 -19 -2 -12 -5z"/>
<path d="M7077 4620 c-21 -4 -43 -12 -50 -19 -9 -9 -4 -9 20 0 23 7 37 7 50 0
16 -9 15 -10 -8 -11 -14 0 -35 -9 -47 -20 -12 -12 -22 -18 -22 -15 0 3 -9 1
-20 -5 -26 -14 -25 -34 3 -54 12 -9 16 -14 10 -11 -7 3 -13 2 -13 -4 0 -15 77
-24 113 -12 19 6 46 25 62 41 l27 29 -21 34 c-26 42 -55 55 -104 47z m80 -104
c-3 -8 -16 -20 -28 -26 -20 -11 -21 -10 -16 11 4 13 7 35 7 49 l0 24 21 -21
c12 -12 19 -28 16 -37z m-76 11 c-13 -13 -26 -3 -16 12 3 6 11 8 17 5 6 -4 6
-10 -1 -17z"/>
<path d="M7578 3973 c12 -2 30 -2 40 0 9 3 -1 5 -23 4 -22 0 -30 -2 -17 -4z"/>
<path d="M6471 4331 c-9 -6 -10 -11 -2 -15 6 -4 11 -4 11 1 0 4 5 1 10 -7 8
-12 10 -11 10 8 0 24 -7 27 -29 13z"/>
<path d="M6410 4280 c-33 -33 -23 -43 15 -14 19 14 35 28 35 30 0 12 -33 1
-50 -16z"/>
<path d="M6110 3735 c0 -14 2 -25 4 -25 2 0 6 11 8 25 3 14 1 25 -3 25 -5 0
-9 -11 -9 -25z"/>
<path d="M4912 3020 c0 -14 2 -19 5 -12 2 6 2 18 0 25 -3 6 -5 1 -5 -13z"/>
<path d="M4910 2975 c0 -8 5 -15 10 -15 6 0 10 7 10 15 0 8 -4 15 -10 15 -5 0
-10 -7 -10 -15z"/>
<path d="M1121 4464 c0 -11 3 -14 6 -6 3 7 2 16 -1 19 -3 4 -6 -2 -5 -13z"/>
<path d="M1236 3997 c3 -10 9 -15 12 -12 3 3 0 11 -7 18 -10 9 -11 8 -5 -6z"/>
<path d="M1261 3924 c0 -11 3 -14 6 -6 3 7 2 16 -1 19 -3 4 -6 -2 -5 -13z"/>
<path d="M1291 3844 c0 -11 3 -14 6 -6 3 7 2 16 -1 19 -3 4 -6 -2 -5 -13z"/>
<path d="M1301 3805 c0 -11 6 -31 14 -45 18 -32 18 -25 0 25 -8 22 -14 31 -14
20z"/>
<path d="M1390 3566 c0 -9 5 -16 10 -16 6 0 10 4 10 9 0 6 -4 13 -10 16 -5 3
-10 -1 -10 -9z"/>
<path d="M1427 3495 c9 -19 18 -33 20 -32 5 6 -21 67 -29 67 -4 0 0 -16 9 -35z"/>
<path d="M1125 3275 c-224 -75 -417 -134 -439 -134 -27 -1 -49 7 -72 24 -36
27 -64 33 -64 12 0 -7 49 -65 109 -128 88 -91 112 -112 122 -102 10 10 9 20
-9 52 l-23 40 21 19 c11 10 57 31 101 47 l82 28 84 -89 c46 -49 98 -103 115
-120 l30 -32 -49 -77 c-62 -101 -71 -106 -118 -71 -33 25 -65 29 -65 8 0 -15
252 -272 261 -266 8 4 99 -64 129 -96 21 -23 110 -90 119 -90 18 0 13 28 -10
59 -16 22 -19 33 -11 47 8 15 285 294 558 563 19 18 34 34 34 36 0 1 -21 15
-47 32 -27 16 -74 46 -105 66 -56 37 -57 37 -68 16 -10 -17 -8 -23 9 -36 50
-35 37 -53 -230 -315 -138 -136 -264 -251 -279 -257 -23 -7 -36 -5 -67 11 -47
25 -53 34 -53 77 0 33 19 74 85 176 76 118 335 546 335 553 0 9 -73 83 -80 81
-3 0 -185 -61 -405 -134z m274 -32 c-13 -21 -41 -67 -64 -103 -22 -36 -56 -91
-75 -122 -19 -32 -37 -58 -41 -58 -4 0 -48 44 -98 98 -74 80 -87 98 -73 104
26 11 356 117 365 117 5 1 -2 -16 -14 -36z"/>
<path d="M1295 3215 c-16 -8 -69 -26 -117 -41 -49 -14 -88 -32 -88 -38 0 -18
117 -129 128 -122 9 6 132 203 132 212 0 8 -25 3 -55 -11z"/>
<path d="M9021 4144 c0 -11 3 -14 6 -6 3 7 2 16 -1 19 -3 4 -6 -2 -5 -13z"/>
<path d="M9085 3429 c-44 -49 -81 -96 -83 -104 -4 -19 25 -20 44 0 33 33 68 8
113 -79 17 -32 31 -55 31 -50 0 5 6 -2 14 -16 7 -14 37 -63 66 -109 36 -59 47
-82 34 -77 -10 4 -57 18 -104 31 -260 72 -320 92 -320 108 0 6 7 18 16 28 17
19 12 39 -10 39 -7 0 -49 -39 -93 -87 -111 -122 -133 -149 -126 -157 3 -3 -1
-6 -11 -6 -24 0 -87 -35 -112 -62 -39 -43 -53 -81 -50 -141 2 -31 2 -57 2 -57
-1 0 -19 9 -41 20 -48 25 -78 25 -130 1 -82 -38 -134 -124 -120 -199 l7 -37
-47 45 -46 45 -84 -88 c-84 -86 -86 -87 -134 -87 -108 0 -256 -108 -280 -205
-21 -84 29 -207 120 -294 137 -131 359 -116 512 36 52 51 52 52 34 77 -13 17
-16 16 -53 -18 -120 -111 -262 -100 -389 30 l-57 57 64 36 c35 20 107 61 160
91 59 33 98 61 98 71 0 18 -54 72 -93 92 l-27 14 30 13 c25 10 36 10 55 0 27
-14 212 -199 269 -268 42 -52 45 -72 11 -106 -20 -20 -22 -26 -10 -36 11 -10
32 2 107 59 146 110 165 128 152 141 -9 9 -17 9 -32 1 -45 -24 -67 -14 -155
76 -48 47 -84 90 -81 95 3 5 0 7 -7 6 -19 -4 -69 99 -69 142 0 39 26 82 61
100 14 8 27 6 49 -5 39 -20 263 -249 287 -292 16 -30 16 -33 0 -51 -19 -21
-23 -52 -6 -52 6 0 64 41 130 91 109 83 119 93 105 108 -12 12 -19 12 -28 3
-7 -7 -26 -12 -42 -12 -26 0 -47 16 -130 101 -107 111 -135 159 -136 231 0 41
5 52 31 78 18 16 37 30 44 30 20 0 80 -46 77 -59 -1 -7 2 -10 7 -7 9 6 205
-197 231 -240 13 -22 13 -27 -4 -59 -23 -41 -15 -55 19 -34 59 35 234 175 235
187 0 15 -21 16 -54 1 -47 -22 -75 -3 -228 156 -82 84 -162 158 -178 165 -35
14 -30 27 17 46 35 15 82 6 323 -60 169 -46 316 -86 321 -86 24 -1 99 -119 99
-156 0 -38 -27 -52 -89 -47 -50 5 -61 3 -80 -16 -47 -47 -12 -121 58 -121 81
0 181 104 181 189 0 27 -58 152 -96 204 -38 53 -247 408 -275 467 l-32 65 22
38 c22 37 21 58 -2 56 -7 0 -48 -41 -92 -90z m-1197 -1123 c15 -8 37 -25 50
-39 l23 -24 -58 -34 c-94 -53 -145 -80 -148 -77 -44 54 -25 139 39 171 39 20
60 21 94 3z"/>
<path d="M7793 2272 c-24 -19 -39 -63 -29 -87 5 -14 9 -14 36 0 16 8 46 30 66
47 33 30 35 33 18 45 -25 18 -65 16 -91 -5z"/>
<path d="M8595 2780 c-14 -16 -17 -30 -12 -75 7 -66 38 -113 151 -224 68 -68
77 -74 98 -64 38 17 88 64 88 82 0 22 -270 301 -291 301 -9 0 -24 -9 -34 -20z"/>
<path d="M8310 2562 c-9 -10 -15 -36 -14 -68 0 -63 21 -98 126 -204 105 -107
101 -104 139 -85 44 23 78 65 70 87 -11 30 -270 288 -288 288 -10 -1 -25 -8
-33 -18z"/>
<path d="M7313 2427 c-98 -54 -183 -111 -180 -121 2 -7 22 -10 49 -8 37 3 50
-1 70 -20 22 -21 118 -190 118 -208 0 -4 -20 -2 -43 5 -134 40 -286 -68 -287
-205 0 -130 107 -306 221 -365 25 -13 49 -16 98 -13 104 8 173 52 206 132 15
36 17 37 29 20 7 -11 16 -29 20 -41 8 -24 21 -30 31 -14 3 6 31 24 63 42 119
68 134 79 123 93 -8 9 -26 12 -54 9 -36 -4 -45 -1 -68 24 -14 15 -76 125 -137
243 -205 398 -227 440 -232 440 -3 0 -15 -6 -27 -13z m31 -407 c42 -15 92 -78
140 -172 70 -137 61 -218 -29 -248 -37 -12 -95 -5 -95 11 0 6 -4 8 -9 5 -16
-10 -92 85 -128 159 -56 119 -49 204 20 238 38 19 66 21 101 7z"/>
<path d="M7260 1993 c-28 -11 -39 -38 -39 -88 0 -57 31 -142 50 -137 24 6 159
105 159 116 0 21 -62 97 -87 107 -27 10 -60 11 -83 2z"/>
<path d="M7368 1776 c-43 -28 -77 -56 -78 -61 0 -18 74 -83 103 -90 33 -9 84
10 97 36 6 10 10 33 10 51 0 39 -31 118 -45 117 -5 -1 -45 -25 -87 -53z"/>
<path d="M8148 2262 c-4 -13 -53 -46 -139 -95 -191 -108 -181 -98 -139 -141
48 -51 123 -86 182 -86 63 0 110 20 164 70 48 44 56 47 78 25 20 -20 33 -19
46 6 10 17 6 27 -25 67 -20 26 -64 76 -99 111 -55 55 -64 61 -68 43z"/>
<path d="M5496 1911 c-20 -4 -32 -14 -37 -31 -8 -29 -37 -122 -109 -350 -134
-427 -129 -417 -211 -440 -18 -6 -29 -4 -32 3 -2 7 -5 5 -9 -4 -3 -7 -2 -21 1
-29 5 -14 24 -14 170 -3 90 7 166 15 169 18 2 2 2 11 -1 20 -4 10 -19 15 -45
15 -62 0 -69 17 -47 106 10 41 24 82 29 90 8 11 46 17 141 24 72 5 148 12 171
14 l41 5 42 -85 c49 -99 46 -120 -19 -130 -30 -5 -40 -11 -40 -25 0 -17 6 -19
68 -14 37 3 125 10 196 15 71 6 132 12 134 15 14 13 -11 32 -43 33 -80 3 -100
29 -255 332 -220 433 -216 425 -252 426 -18 0 -46 -2 -62 -5z m105 -320 c46
-91 85 -168 87 -172 4 -9 -50 -16 -185 -24 l-103 -7 15 49 c36 118 100 322
101 320 1 -1 39 -76 85 -166z"/>
<path d="M5512 1643 c-5 -15 -22 -66 -37 -113 -15 -47 -29 -91 -32 -98 -4 -11
14 -12 93 -6 55 3 101 9 104 11 4 4 -62 139 -101 206 l-16 28 -11 -28z"/>
<path d="M6740 1899 c-108 -10 -214 -63 -257 -128 -44 -65 -20 -121 50 -121
67 0 87 20 87 86 0 45 4 59 25 79 38 38 86 34 123 -11 27 -32 72 -139 61 -147
-2 -2 -35 -16 -73 -32 -142 -59 -206 -123 -206 -204 0 -58 26 -102 73 -124 47
-23 141 -22 192 2 38 17 98 74 107 102 3 8 14 2 32 -16 25 -25 32 -27 77 -21
64 9 156 53 163 79 4 16 1 18 -22 12 -74 -18 -79 -17 -99 8 -11 14 -46 98 -79
187 -83 227 -119 263 -254 249z m134 -346 c9 -26 16 -61 16 -79 0 -64 -91
-123 -144 -94 -26 13 -56 60 -56 85 0 28 40 75 88 106 64 40 77 38 96 -18z"/>
<path d="M6785 1548 c-25 -15 -54 -49 -55 -65 0 -18 5 -17 71 18 49 27 56 33
44 45 -16 17 -33 17 -60 2z"/>
<path d="M6802 1454 c-13 -9 -30 -13 -38 -10 -8 3 -12 2 -9 -3 3 -5 1 -12 -5
-16 -17 -11 -1 -25 29 -25 28 0 81 39 81 60 0 15 -32 12 -58 -6z"/>
<path d="M6662 1798 c-7 -7 -12 -38 -12 -70 0 -46 -4 -61 -22 -78 -29 -27 -79
-40 -120 -31 -30 7 -39 4 -73 -26 -69 -59 -155 -38 -189 47 -12 31 -21 40 -40
40 -54 0 -75 -61 -56 -156 43 -212 154 -287 329 -221 45 17 58 26 50 34 -17
17 -20 82 -7 126 17 56 87 119 187 169 l88 44 -18 48 c-10 27 -26 57 -35 67
-19 21 -64 25 -82 7z"/>
<path d="M6174 1755 c-142 -31 -206 -105 -205 -237 0 -135 70 -271 164 -320
64 -33 180 -36 285 -8 101 27 130 47 113 77 l-11 21 -52 -20 c-163 -62 -291
20 -342 219 -33 125 -11 206 58 219 50 9 62 2 90 -54 14 -27 32 -52 41 -56 39
-14 99 0 117 28 13 19 9 61 -8 85 -34 49 -147 70 -250 46z"/>
<path d="M2396 2655 c-3 -9 4 -21 20 -31 40 -27 47 -49 28 -89 -9 -19 -21 -32
-27 -28 -6 3 -7 1 -3 -5 6 -10 -290 -462 -335 -511 -17 -18 -29 -22 -58 -17
-79 11 -86 11 -86 -3 0 -8 7 -17 15 -22 8 -4 42 -23 75 -42 138 -79 236 -128
245 -122 18 11 10 35 -14 44 -24 10 -36 29 -36 61 0 21 168 280 182 280 5 0
40 -18 79 -40 39 -22 75 -40 79 -40 5 0 18 -13 30 -30 20 -28 20 -31 5 -61
-14 -26 -15 -34 -3 -45 7 -7 18 -10 23 -6 21 15 145 213 140 222 -11 17 -37
11 -61 -15 -31 -34 -53 -32 -144 15 -127 66 -122 52 -50 161 77 115 98 139
123 139 36 0 171 -78 195 -113 24 -36 29 -76 11 -94 -16 -16 -4 -43 18 -43 18
1 103 127 103 153 0 7 -12 18 -27 24 -16 6 -55 27 -88 46 -149 84 -416 227
-424 227 -5 0 -11 -7 -15 -15z"/>
<path d="M1708 2496 c-16 -19 -28 -39 -28 -45 0 -5 17 -20 38 -32 20 -13 39
-26 42 -29 3 -4 32 -25 65 -48 33 -23 92 -64 130 -91 39 -28 76 -54 83 -57 15
-7 73 54 69 73 -2 11 -109 89 -282 207 -33 23 -61 44 -63 49 -8 16 -28 5 -54
-27z"/>
<path d="M2840 2079 c-31 -12 -59 -48 -60 -75 0 -27 38 -62 77 -70 26 -5 37 0
82 40 58 52 93 58 135 25 35 -28 34 -65 -5 -150 l-31 -67 -33 14 c-52 22 -196
43 -245 37 -86 -11 -137 -50 -151 -115 -13 -56 16 -117 72 -155 39 -26 50 -28
141 -28 98 0 98 0 98 -25 0 -14 7 -33 14 -43 14 -19 103 -57 132 -57 9 0 30
-7 47 -15 18 -8 64 -23 102 -34 39 -11 108 -31 155 -45 46 -14 88 -22 92 -20
16 10 8 22 -27 43 -42 24 -45 48 -15 136 49 143 103 230 160 260 37 19 31 20
75 -15 47 -37 92 -40 123 -7 12 13 22 33 22 46 0 33 -43 71 -82 72 -85 3 -121
-8 -165 -51 -27 -25 -28 -19 -7 37 9 23 14 48 11 56 -7 19 -225 53 -241 37 -8
-9 -6 -15 8 -24 36 -21 56 -46 56 -70 0 -22 -79 -251 -117 -338 -25 -60 -85
-87 -113 -53 -7 8 -23 15 -36 15 -14 0 -30 10 -40 25 -16 25 -14 29 67 198 78
159 84 177 84 234 0 52 -4 66 -25 88 -72 77 -271 129 -360 94z m126 -330 c24
-6 44 -14 44 -18 0 -19 -64 -113 -87 -128 -39 -26 -107 -22 -138 7 -36 34 -33
74 9 116 29 29 41 34 81 34 25 0 66 -5 91 -11z"/>
<path d="M2819 1717 c-21 -16 -32 -52 -24 -77 9 -27 64 -36 102 -16 52 26 80
87 47 100 -27 10 -108 6 -125 -7z"/>
<path d="M3855 1751 c-99 -45 -157 -160 -157 -307 1 -143 88 -238 251 -275 71
-16 201 -15 212 2 20 31 10 39 -49 39 -106 0 -180 38 -222 113 -21 35 -24 56
-25 129 0 47 3 89 6 93 8 7 200 -27 306 -54 83 -22 83 -22 83 65 0 69 -17 111
-63 151 -47 41 -91 54 -207 59 -78 3 -102 1 -135 -15z m220 -46 c38 -15 55
-46 55 -101 0 -27 -4 -34 -19 -34 -23 0 -213 39 -219 45 -11 10 37 72 68 87
43 22 70 22 115 3z"/>
<path d="M3980 1683 c-19 -7 -50 -34 -50 -43 0 -8 160 -43 167 -36 3 2 2 18
-2 34 -9 42 -65 63 -115 45z"/>
<path d="M4405 1679 c-64 -20 -105 -77 -105 -146 0 -72 32 -110 150 -182 122
-74 148 -121 96 -171 -80 -75 -236 -9 -236 99 0 26 -4 31 -24 31 -23 0 -24 -4
-31 -79 -4 -44 -4 -84 -1 -90 11 -16 147 -42 232 -43 135 -2 212 50 222 150 7
80 -30 131 -141 196 -125 73 -155 126 -102 176 21 19 32 22 76 18 37 -4 58
-12 70 -26 9 -12 19 -19 22 -16 3 3 11 -18 18 -46 11 -42 16 -50 34 -48 17 3
21 12 26 73 3 39 3 73 0 77 -24 30 -237 48 -306 27z"/>
<path d="M2400 735 c-19 -11 -21 -14 -7 -15 15 0 17 -14 17 -160 0 -131 3
-160 14 -160 10 0 15 15 18 48 5 74 -3 302 -10 302 -4 -1 -18 -7 -32 -15z"/>
<path d="M1068 683 c-4 -36 7 -45 17 -13 6 20 64 38 84 25 7 -4 11 -54 11
-134 0 -123 -1 -128 -22 -139 -19 -9 -12 -11 42 -11 49 0 59 3 43 9 -13 5 -23
15 -23 22 0 7 -2 47 -5 88 -2 41 -1 96 2 123 5 44 7 47 34 47 16 0 38 -9 48
-19 22 -22 31 -18 31 13 0 20 -5 21 -129 21 l-129 0 -4 -32z"/>
<path d="M3022 704 c72 -22 117 -103 103 -186 -20 -119 -161 -134 -215 -23
-37 77 -20 168 38 199 15 9 23 15 17 16 -28 1 -78 -44 -97 -86 -27 -63 -18
-123 26 -172 30 -32 39 -36 95 -40 54 -4 59 -6 44 -18 -10 -7 -13 -14 -7 -14
6 0 37 24 70 54 l59 53 0 74 c0 58 -4 80 -20 101 -26 35 -76 58 -123 57 l-37
0 47 -15z"/>
<path d="M2918 642 c-7 -8 -13 -39 -12 -68 1 -116 109 -187 177 -116 23 23 27
37 27 83 0 35 -7 65 -19 85 -18 29 -21 30 -89 31 -53 1 -75 -3 -84 -15z"/>
<path d="M1682 610 c-7 -11 -20 -20 -29 -20 -16 0 -16 -1 0 -12 12 -10 17 -32
19 -88 l3 -75 36 -3 c21 -2 40 3 47 10 8 10 4 13 -21 13 l-32 0 -3 74 -3 74
30 -6 c17 -4 33 -2 36 3 4 6 -9 10 -29 10 -27 0 -35 4 -38 20 l-3 21 -13 -21z"/>
<path d="M1883 589 c27 -16 20 -44 -15 -62 -26 -14 -28 -16 -8 -11 84 20 106
84 30 84 -22 -1 -23 -2 -7 -11z"/>
<path d="M2048 584 c-37 -20 -70 -85 -66 -132 3 -34 6 -37 35 -40 24 -2 39 3
58 22 14 14 25 30 25 37 0 7 -11 0 -25 -15 -27 -29 -36 -31 -53 -14 -35 35 4
138 53 138 28 0 34 -16 33 -86 -1 -79 30 -118 62 -79 11 13 10 14 -4 9 -14 -5
-16 4 -16 82 l0 89 -38 2 c-20 1 -49 -5 -64 -13z"/>
<path d="M2240 573 c-27 -25 -32 -36 -32 -72 1 -57 31 -91 81 -91 20 0 42 4
48 8 8 5 -2 8 -22 8 -43 0 -64 19 -72 67 -12 79 26 120 73 76 21 -20 24 -20
30 -5 8 22 4 26 -38 33 -29 4 -41 0 -68 -24z"/>
<path d="M3355 553 c-4 -27 -9 -56 -12 -67 -3 -12 -1 -16 6 -12 7 5 11 -5 11
-29 0 -38 22 -57 43 -36 8 8 8 11 -1 11 -8 0 -12 27 -12 90 0 72 -3 90 -14 90
-10 0 -17 -16 -21 -47z"/>
<path d="M1821 564 c-28 -36 -29 -106 -1 -134 15 -15 32 -20 68 -19 26 1 38 3
27 6 -11 2 -29 6 -41 8 -41 9 -59 99 -28 143 22 31 0 28 -25 -4z"/>
<path d="M1855 559 c-12 -19 5 -23 22 -6 16 16 16 17 1 17 -9 0 -20 -5 -23
-11z"/>
<path d="M2040 538 c-11 -18 -20 -43 -20 -55 0 -48 43 -38 65 14 19 46 19 50
-5 63 -17 9 -23 6 -40 -22z"/>
<path d="M4900 745 c-14 -8 -19 -14 -12 -15 8 0 12 -20 12 -64 l0 -63 -38 -7
c-72 -11 -125 -105 -93 -165 17 -31 65 -28 96 5 32 35 32 50 0 19 -43 -44 -75
-23 -75 49 0 42 29 76 64 76 35 0 43 -17 44 -92 0 -37 3 -72 7 -78 11 -17 41
-11 61 12 16 20 17 21 1 9 -11 -9 -21 -11 -27 -5 -5 5 -11 82 -12 171 l-3 161
-25 -13z"/>
<path d="M4504 578 c-17 -20 -17 -21 -1 -8 28 21 37 -1 37 -92 0 -63 3 -78 15
-78 15 0 21 48 17 125 -5 78 -30 97 -68 53z"/>
<path d="M4820 550 c-15 -15 -20 -31 -18 -58 6 -75 78 -40 82 40 1 27 -3 34
-21 36 -12 2 -31 -6 -43 -18z"/>
<path d="M5821 746 c-21 -12 -21 -14 -6 -20 16 -6 17 -18 11 -144 -8 -159 -3
-174 58 -174 20 0 40 3 43 6 4 3 -5 6 -18 6 -42 0 -51 13 -48 66 5 90 -1 274
-8 274 -5 -1 -19 -7 -32 -14z"/>
<path d="M6046 591 c-3 -5 1 -11 9 -14 10 -5 15 -28 17 -89 3 -89 13 -103 53
-74 20 15 19 15 -2 9 -23 -5 -23 -3 -23 80 0 68 -3 86 -16 91 -22 8 -32 8 -38
-3z"/>
<path d="M6220 590 c-11 -8 -9 -9 11 -5 17 4 30 1 38 -9 17 -20 41 -21 41 -2
0 25 -61 35 -90 16z"/>
<path d="M5900 550 c-22 -22 -33 -57 -28 -91 2 -17 10 -25 29 -27 21 -2 29 3
43 31 19 41 20 61 6 88 -13 24 -25 24 -50 -1z"/>
<path d="M8511 746 c-20 -11 -21 -14 -6 -20 15 -5 16 -21 13 -145 -3 -77 -1
-147 4 -155 10 -17 83 -22 106 -7 8 5 -4 7 -30 7 l-43 -1 -1 50 c-1 28 -2 103
-3 168 -1 64 -4 117 -8 117 -5 -1 -19 -7 -32 -14z"/>
<path d="M8346 557 c-11 -8 -20 -31 -23 -60 -5 -42 -3 -47 14 -47 30 0 56 35
57 77 1 42 -17 53 -48 30z"/>
<path d="M8590 550 c-22 -22 -33 -57 -28 -91 2 -19 9 -24 33 -24 26 0 32 5 44
42 12 33 12 47 3 67 -14 31 -26 32 -52 6z"/>
<path d="M5234 683 c-8 -21 -24 -59 -35 -86 -34 -84 -70 -152 -93 -169 -20
-17 -19 -18 39 -18 55 0 58 1 35 13 -28 15 -28 29 0 95 18 39 22 42 58 42 39
0 40 -1 66 -62 26 -59 26 -63 10 -75 -15 -11 -9 -13 42 -12 43 0 53 3 38 9
-16 6 -36 46 -79 154 -31 80 -58 146 -61 146 -2 0 -11 -17 -20 -37z m25 -64
c16 -46 14 -49 -19 -49 -34 0 -34 1 -18 47 15 41 23 42 37 2z"/>
<path d="M5227 600 c-4 -15 0 -20 13 -20 13 0 17 5 13 20 -3 11 -9 20 -13 20
-4 0 -10 -9 -13 -20z"/>
<path d="M7927 688 c-8 -18 -33 -78 -56 -133 -25 -60 -53 -109 -69 -122 l-27
-23 55 1 c30 1 48 3 38 6 -28 7 -29 31 -3 88 23 53 25 55 63 55 39 0 40 -1 66
-62 26 -59 26 -63 10 -75 -15 -11 -9 -13 42 -12 43 0 53 3 38 9 -16 6 -37 46
-79 154 -31 80 -59 146 -61 146 -2 0 -10 -15 -17 -32z m22 -69 c16 -46 14 -49
-19 -49 -34 0 -34 1 -18 47 15 41 23 42 37 2z"/>
<path d="M7917 600 c-4 -15 0 -20 13 -20 13 0 17 5 13 20 -3 11 -9 20 -13 20
-4 0 -10 -9 -13 -20z"/>
<path d="M3627 704 c-9 -10 4 -34 19 -34 8 0 14 -11 15 -27 0 -27 1 -27 11 -6
14 30 2 73 -21 73 -10 0 -20 -3 -24 -6z"/>
<path d="M6063 684 c-8 -21 13 -42 28 -27 13 13 5 43 -11 43 -6 0 -13 -7 -17
-16z"/>
<path d="M6492 610 c-7 -11 -20 -20 -29 -20 -16 0 -16 -1 0 -12 12 -10 17 -32
19 -88 l3 -75 36 -3 c21 -2 40 3 47 10 8 10 4 13 -21 13 l-32 0 -3 74 -3 73
31 -4 c17 -3 33 -1 36 4 3 4 -11 8 -30 8 -27 0 -35 4 -38 20 l-3 21 -13 -21z"/>
<path d="M6639 572 c-64 -57 -31 -162 51 -162 46 0 77 22 88 64 13 46 4 83
-26 106 -35 28 -76 25 -113 -8z m82 -1 c20 -16 23 -28 24 -76 0 -64 -14 -82
-57 -72 -45 12 -66 110 -31 149 21 23 35 23 64 -1z"/>
<path d="M6667 569 c-22 -13 -23 -69 -2 -109 25 -49 75 -34 75 21 0 63 -37
108 -73 88z"/>
<path d="M3778 593 c-10 -2 -18 -8 -19 -11 0 -4 -3 -18 -5 -32 -12 -61 -9 -94
8 -98 22 -4 59 54 56 88 -3 21 -8 25 -32 23 -20 -2 -26 1 -19 8 6 6 21 9 34 7
23 -3 24 -7 26 -77 2 -80 17 -110 50 -96 12 5 14 9 6 12 -9 3 -13 31 -13 91
l0 87 -38 1 c-20 1 -45 0 -54 -3z"/>
<path d="M4341 544 c-27 -35 -29 -94 -3 -94 29 0 55 36 56 77 1 47 -23 55 -53
17z"/>
<path d="M5656 587 c-14 -11 -12 -12 16 -12 l33 0 1 -66 c3 -95 30 -135 64
-94 11 13 10 14 -4 9 -14 -5 -16 4 -16 82 l0 89 -39 2 c-21 1 -46 -3 -55 -10z"/>
<path d="M5654 562 c-19 -12 -34 -49 -34 -81 0 -66 72 -21 74 46 1 38 -15 52
-40 35z"/>
<path d="M1359 571 c-29 -29 -33 -43 -29 -91 5 -67 96 -95 145 -45 38 37 37
108 -1 143 -35 31 -79 29 -115 -7z m86 -6 c27 -26 34 -89 15 -126 -11 -19 -45
-25 -66 -11 -35 23 -46 112 -17 144 22 24 39 23 68 -7z"/>
<path d="M1385 560 c-36 -40 11 -150 53 -124 34 22 22 113 -18 134 -13 7 -22
4 -35 -10z"/>
<path d="M3536 578 c-9 -12 -16 -29 -15 -38 0 -9 4 -6 9 8 8 18 15 21 34 16
27 -6 46 13 25 27 -22 14 -37 10 -53 -13z"/>
<path d="M3933 583 c-10 -10 -13 -14 -5 -9 22 16 32 -13 32 -96 0 -63 3 -78
15 -78 11 0 15 13 17 48 5 138 -12 178 -59 135z"/>
<path d="M4025 574 c-14 -15 -25 -31 -25 -37 0 -5 9 2 21 17 41 53 57 32 61
-84 3 -71 18 -86 54 -53 11 10 14 14 7 10 -24 -16 -33 5 -33 77 0 43 -5 77
-12 84 -19 19 -47 14 -73 -14z"/>
<path d="M5506 578 c-9 -12 -16 -29 -15 -38 0 -8 4 -5 10 8 6 17 14 22 29 17
28 -9 44 3 29 21 -17 20 -36 17 -53 -8z"/>
<path d="M6934 579 c-19 -22 -19 -22 2 -11 12 6 24 8 28 5 3 -3 6 -44 6 -90 0
-67 3 -83 15 -83 15 0 21 48 17 125 -5 78 -29 97 -68 54z"/>
<path d="M7035 574 c-14 -15 -25 -31 -25 -37 0 -5 9 2 21 17 40 51 59 30 59
-64 0 -32 3 -65 6 -74 8 -20 38 -21 53 -2 9 11 8 14 -6 12 -16 -1 -18 9 -21
74 -2 41 -8 80 -14 87 -17 21 -47 15 -73 -13z"/>
<path d="M7221 584 c-49 -35 -59 -111 -20 -153 29 -31 92 -29 124 4 56 55 21
165 -53 165 -15 0 -38 -7 -51 -16z m78 -20 c38 -48 23 -144 -22 -144 -42 0
-67 36 -67 96 0 69 51 96 89 48z"/>
<path d="M7238 569 c-35 -20 -15 -130 25 -137 47 -9 65 73 26 122 -23 29 -26
30 -51 15z"/>
<path d="M8202 588 c-18 -18 -15 -23 19 -25 24 -2 30 1 27 15 -4 21 -29 27
-46 10z"/>
<path d="M8793 580 c29 -23 47 -26 47 -6 0 15 -21 26 -52 26 -19 0 -19 -1 5
-20z"/>
<path d="M8743 579 c-23 -23 -14 -46 31 -83 29 -24 46 -46 48 -64 l3 -27 13
23 c18 31 9 53 -38 88 -22 16 -40 39 -42 52 -2 19 -5 21 -15 11z"/>
<path d="M8730 432 c0 -20 25 -32 65 -32 19 0 19 1 -1 13 -12 6 -31 18 -43 25
-18 11 -21 10 -21 -6z"/>
<path d="M7681 519 c-46 -9 -58 -15 -49 -25 9 -8 128 17 128 27 0 11 -19 10
-79 -2z"/>
</g>
</svg>
